<svg width="40" height="40" viewBox="0 0 40 40" fill="none" xmlns="http://www.w3.org/2000/svg">
<rect width="40" height="40" rx="20" fill="#3C3C87"/>
<path d="M7.6537 22.06C7.9897 23.908 9.3337 25.14 11.4197 25.14C13.5337 25.14 15.0177 23.726 15.0177 21.668C15.0177 19.82 13.6037 18.714 12.2317 18.714C12.1197 18.714 12.0357 18.714 11.9937 18.728L14.5837 16.558V15.2H8.1157V16.838H11.8957L9.1237 19.19L10.1457 20.45C10.4397 20.1 10.9297 19.904 11.4477 19.904C12.4977 19.904 13.2677 20.618 13.2677 21.682C13.2677 22.746 12.4837 23.46 11.4197 23.46C10.2297 23.46 9.4037 22.662 9.3337 21.318L7.6537 22.06ZM16.0815 20.338C16.0815 23.362 17.7475 25.14 19.9035 25.14C21.9055 25.14 23.3475 23.796 23.3475 21.71C23.3475 19.96 22.1015 18.588 20.2535 18.588C19.2035 18.588 18.2375 19.134 17.8035 19.918V19.806C17.8035 17.678 18.8255 16.67 20.0015 16.67C21.0655 16.67 21.6395 17.174 21.8495 18.196L23.4875 17.692C23.1655 16.026 21.9895 15.06 20.0715 15.06C17.3555 15.06 16.0815 17.356 16.0815 20.338ZM21.5555 21.85C21.5555 22.76 20.8695 23.488 19.9175 23.488C18.9235 23.488 18.2235 22.76 18.2235 21.808C18.2235 20.898 18.9095 20.17 19.8475 20.17C20.8695 20.17 21.5555 20.898 21.5555 21.85ZM31.6 15.2H25.188C25.188 17.006 25.09 18.602 24.768 20.548L26.588 20.968C26.854 20.296 27.554 19.848 28.38 19.848C29.556 19.848 30.284 20.618 30.284 21.668C30.284 22.718 29.528 23.46 28.338 23.46C27.218 23.46 26.532 22.788 26.378 21.71L24.628 22.2C24.754 23.152 25.16 23.88 25.846 24.384C26.532 24.888 27.372 25.14 28.338 25.14C30.676 25.14 32.062 23.628 32.062 21.528C32.062 19.428 30.578 18.252 28.702 18.252C27.904 18.252 27.106 18.574 26.644 19.036C26.784 18.294 26.854 17.566 26.854 16.88H31.6V15.2Z" fill="white"/>
</svg>
