<svg width="25" height="18" viewBox="0 0 25 18" fill="none" xmlns="http://www.w3.org/2000/svg">
<path d="M5.39893 14.2856C5.39893 14.9521 5.83838 15.2524 6.3584 15.2524C6.63672 15.2524 6.86377 15.1133 7.18604 14.9155C7.9917 14.3809 8.93652 14.0659 9.91064 14.0732C10.936 14.0806 11.9395 14.4541 12.7378 15.2085C13.082 15.5308 13.353 15.6479 13.6606 15.6479C13.9683 15.6479 14.2466 15.5308 14.5835 15.2085C15.3818 14.4614 16.3853 14.0806 17.4106 14.0732C18.3848 14.0659 19.3296 14.3809 20.1353 14.9155C20.4575 15.1133 20.6846 15.2524 20.9629 15.2524C21.4829 15.2524 21.9224 14.9521 21.9224 14.2856V4.34668C21.9224 4.2002 21.9004 4.07568 21.8198 3.93652C21.1313 2.74268 19.4248 1.77588 17.3813 1.77588C15.8213 1.77588 14.437 2.37646 13.6606 3.24805C12.8843 2.37646 11.5 1.77588 9.93994 1.77588C7.89648 1.77588 6.18994 2.74268 5.50146 3.93652C5.4209 4.07568 5.39893 4.2002 5.39893 4.34668V14.2856ZM6.83447 13.48V4.55908C7.41309 3.74609 8.65088 3.21143 9.93994 3.21143C11.2729 3.21143 12.4375 3.75342 12.9429 4.5957V13.5825C12.2031 13.0332 11.0898 12.6377 9.93994 12.6377C8.73877 12.6377 7.60352 12.96 6.83447 13.48ZM14.3784 13.5825V4.5957C14.8838 3.75342 16.0557 3.21143 17.3813 3.21143C18.6704 3.21143 19.9082 3.74609 20.4868 4.55908V13.48C19.7178 12.96 18.5825 12.6377 17.3813 12.6377C16.2314 12.6377 15.1182 13.0332 14.3784 13.5825Z" fill="#3C3C87"/>
<path d="M5.2207 9.30322H7.4207V7.10322H5.2207V9.30322ZM6.60645 9.30322V7.10322H4.40645V9.30322H6.60645ZM6.60645 7.91748H4.40645V10.1175H6.60645V7.91748ZM5.2207 7.91748V10.1175H7.4207V7.91748H5.2207ZM-0.830371 8.61035C-0.830371 10.2178 0.482574 11.5032 2.0625 11.5032V7.10322C2.89047 7.10322 3.56963 7.76563 3.56963 8.61035H-0.830371ZM2.0625 11.5032H5.2207V7.10322H2.0625V11.5032ZM3.0207 9.30322V12.4614H7.4207V9.30322H3.0207ZM3.0207 12.4614C3.0207 14.0578 4.3172 15.3543 5.91357 15.3543V10.9543C6.74725 10.9543 7.4207 11.6277 7.4207 12.4614H3.0207ZM5.91357 15.3543C7.50995 15.3543 8.80645 14.0578 8.80645 12.4614H4.40645C4.40645 11.6277 5.0799 10.9543 5.91357 10.9543V15.3543ZM8.80645 12.4614V9.30322H4.40645V12.4614H8.80645ZM6.60645 11.5032H9.76465V7.10322H6.60645V11.5032ZM9.76465 11.5032C11.361 11.5032 12.6575 10.2067 12.6575 8.61035H8.25752C8.25752 7.77667 8.93097 7.10322 9.76465 7.10322V11.5032ZM12.6575 8.61035C12.6575 7.01398 11.361 5.71748 9.76465 5.71748V10.1175C8.93097 10.1175 8.25752 9.44403 8.25752 8.61035H12.6575ZM9.76465 5.71748H6.60645V10.1175H9.76465V5.71748ZM8.80645 7.91748V4.75928H4.40645V7.91748H8.80645ZM8.80645 4.75928C8.80645 3.17935 7.521 1.86641 5.91357 1.86641V6.26641C5.06885 6.26641 4.40645 5.58725 4.40645 4.75928H8.80645ZM5.91357 1.86641C4.30615 1.86641 3.0207 3.17935 3.0207 4.75928H7.4207C7.4207 5.58725 6.7583 6.26641 5.91357 6.26641V1.86641ZM3.0207 4.75928V7.91748H7.4207V4.75928H3.0207ZM5.2207 5.71748H2.0625V10.1175H5.2207V5.71748ZM2.0625 5.71748C0.482574 5.71748 -0.830371 7.00293 -0.830371 8.61035H3.56963C3.56963 9.45508 2.89047 10.1175 2.0625 10.1175V5.71748Z" fill="#F4F6F8"/>
  <path d="M1.36963 8.61035C1.36963 8.9917 1.68652 9.30322 2.0625 9.30322H5.2207V12.4614C5.2207 12.8428 5.53223 13.1543 5.91357 13.1543C6.29492 13.1543 6.60645 12.8428 6.60645 12.4614V9.30322H9.76465C10.146 9.30322 10.4575 8.9917 10.4575 8.61035C10.4575 8.229 10.146 7.91748 9.76465 7.91748H6.60645V4.75928C6.60645 4.3833 6.29492 4.06641 5.91357 4.06641C5.53223 4.06641 5.2207 4.3833 5.2207 4.75928V7.91748H2.0625C1.68652 7.91748 1.36963 8.229 1.36963 8.61035Z" fill="#3C3C87"/>
</svg>
