<svg width="40" height="40" viewBox="0 0 40 40" fill="none" xmlns="http://www.w3.org/2000/svg">
<rect width="40" height="40" rx="20" fill="#E6E8EE"/>
<path d="M13.916 21.6455L18.8652 21.6592C18.9062 21.6592 18.9336 21.666 18.9473 21.6797C18.9655 21.6934 18.9746 21.7253 18.9746 21.7754L18.9883 26.6836C18.9883 26.916 19.0384 27.1097 19.1387 27.2646C19.2389 27.4242 19.3688 27.5404 19.5283 27.6133C19.6878 27.6908 19.8564 27.7204 20.0342 27.7021C20.2165 27.6839 20.3874 27.6156 20.5469 27.4971C20.7109 27.3786 20.8431 27.21 20.9434 26.9912L25.9814 16.1084C26.1136 15.8167 26.1637 15.5547 26.1318 15.3223C26.1045 15.0898 26.0111 14.903 25.8516 14.7617C25.6966 14.6159 25.5007 14.5316 25.2637 14.5088C25.0267 14.486 24.7669 14.5407 24.4844 14.6729L13.5469 19.7178C13.3418 19.8135 13.1846 19.9388 13.0752 20.0938C12.9704 20.2487 12.9089 20.415 12.8906 20.5928C12.877 20.7705 12.9066 20.9391 12.9795 21.0986C13.057 21.2581 13.1732 21.388 13.3281 21.4883C13.4831 21.5885 13.679 21.641 13.916 21.6455Z" fill="#3C3C87"/>
</svg>
