<svg width="32" height="32" viewBox="0 0 32 32" fill="none" xmlns="http://www.w3.org/2000/svg">
<rect width="32" height="32" rx="16" fill="#F4F5F7"/>
<rect width="32" height="32" rx="16" fill="url(#paint0_linear_501_1122)"/>
<path d="M13.0896 9.2998H18.91C20.9992 9.2998 22.6998 11.0004 22.6998 13.0896V18.91C22.6998 20.9993 20.9993 22.6998 18.91 22.6998H13.0896C11.0004 22.6998 9.2998 20.9993 9.2998 18.91V13.0896C9.2998 11.0004 11.0004 9.2998 13.0896 9.2998ZM18.91 22.2512C20.7552 22.2512 22.2512 20.7552 22.2512 18.91V13.0896C22.2512 11.2443 20.7552 9.74844 18.91 9.74844H13.0896C11.2444 9.74844 9.74844 11.2443 9.74844 13.0896V18.91C9.74844 20.7552 11.2444 22.2512 13.0896 22.2512H18.91Z" fill="url(#paint1_linear_501_1122)" stroke="white"/>
<path d="M12.7754 15.9997C12.7754 14.2223 14.2223 12.7754 15.9997 12.7754C17.7772 12.7754 19.2241 14.2223 19.2241 15.9997C19.2241 17.7772 17.7772 19.2241 15.9997 19.2241C14.2223 19.2241 12.7754 17.7772 12.7754 15.9997ZM13.224 15.9997C13.224 17.5327 14.4667 18.7755 15.9997 18.7755C17.5327 18.7755 18.7755 17.5327 18.7755 15.9997C18.7755 14.4667 17.5327 13.224 15.9997 13.224C14.4668 13.224 13.224 14.4667 13.224 15.9997Z" fill="url(#paint2_linear_501_1122)" stroke="white"/>
<path d="M20.1237 12.3036C20.1237 12.5203 19.948 12.696 19.7313 12.696C19.5146 12.696 19.3389 12.5203 19.3389 12.3036C19.3389 12.0868 19.5146 11.9111 19.7313 11.9111C19.948 11.9111 20.1237 12.0868 20.1237 12.3036Z" fill="url(#paint3_linear_501_1122)" stroke="white"/>
<defs>
<linearGradient id="paint0_linear_501_1122" x1="-4.92308" y1="16" x2="32" y2="16" gradientUnits="userSpaceOnUse">
<stop stop-color="#ED0016"/>
<stop offset="1" stop-color="#C0009E"/>
</linearGradient>
<linearGradient id="paint1_linear_501_1122" x1="15.9998" y1="23.1579" x2="15.9998" y2="8.91165" gradientUnits="userSpaceOnUse">
<stop stop-color="#E09B3D"/>
<stop offset="0.3" stop-color="#C74C4D"/>
<stop offset="0.6" stop-color="#C21975"/>
<stop offset="1" stop-color="#7024C4"/>
</linearGradient>
<linearGradient id="paint2_linear_501_1122" x1="15.9997" y1="23.1578" x2="15.9997" y2="8.91159" gradientUnits="userSpaceOnUse">
<stop stop-color="#E09B3D"/>
<stop offset="0.3" stop-color="#C74C4D"/>
<stop offset="0.6" stop-color="#C21975"/>
<stop offset="1" stop-color="#7024C4"/>
</linearGradient>
<linearGradient id="paint3_linear_501_1122" x1="19.7313" y1="23.158" x2="19.7313" y2="8.9118" gradientUnits="userSpaceOnUse">
<stop stop-color="#E09B3D"/>
<stop offset="0.3" stop-color="#C74C4D"/>
<stop offset="0.6" stop-color="#C21975"/>
<stop offset="1" stop-color="#7024C4"/>
</linearGradient>
</defs>
</svg>
