<svg width="32" height="32" viewBox="0 0 32 32" fill="none" xmlns="http://www.w3.org/2000/svg">
<rect width="32" height="32" rx="16" fill="#1877F2"/>
<path d="M23.1998 15.9998C23.1998 12.0234 19.9763 8.7998 15.9998 8.7998C12.0234 8.7998 8.7998 12.0234 8.7998 15.9998C8.7998 19.5935 11.4327 22.5722 14.8748 23.1123V18.0811H13.0467V15.9998H14.8748V14.4136C14.8748 12.6091 15.9497 11.6123 17.5943 11.6123C18.3821 11.6123 19.2061 11.7529 19.2061 11.7529V13.5248H18.2982C17.4037 13.5248 17.1248 14.0798 17.1248 14.6492V15.9998H19.1217L18.8025 18.0811H17.1248V23.1123C20.5669 22.5722 23.1998 19.5935 23.1998 15.9998Z" fill="white"/>
<path d="M18.8027 18.0811L19.1219 15.9998H17.125V14.6492C17.125 14.0798 17.4039 13.5248 18.2983 13.5248H19.2062V11.7529C19.2062 11.7529 18.3823 11.6123 17.5945 11.6123C15.9499 11.6123 14.875 12.609 14.875 14.4136V15.9998H13.0469V18.0811H14.875V23.1123C15.2472 23.1707 15.6233 23.1999 16 23.1998C16.3827 23.1998 16.7584 23.1698 17.125 23.1123V18.0811H18.8027Z" fill="#1877F2"/>
</svg>
