<svg width="32" height="32" viewBox="0 0 32 32" fill="none" xmlns="http://www.w3.org/2000/svg">
<rect width="32" height="32" rx="16" fill="#2F9CEB"/>
<path d="M9.78506 15.2777C9.78532 15.2776 9.78557 15.2776 9.78581 15.2775L17.4095 11.9532C17.7614 11.7913 18.5066 11.4628 19.2005 11.159C20.2091 10.7173 21.8857 10.0941 21.7942 11.1913C21.7614 11.6761 21.4998 13.373 21.2379 15.2082L20.5976 19.4643C20.4792 20.2512 20.5696 21.388 19.7973 21.58C19.2401 21.7184 18.3248 21.0952 18.1613 20.9566C18.0305 20.8528 15.7072 19.2944 14.8564 18.5326C14.6273 18.3249 14.3656 17.9092 14.8891 17.4245C16.0671 16.2817 17.4742 14.8619 18.3248 13.9615C18.7175 13.5459 19.1102 12.5763 17.4741 13.7538L14.1189 16.1463C13.28 16.7445 12.3373 17.3901 11.3553 17.0783C10.866 16.923 10.336 16.7418 9.92755 16.5992C9.46224 16.4367 8.79518 16.1004 9.10173 15.7144C9.21004 15.5781 9.41775 15.4293 9.78434 15.2779C9.78456 15.2778 9.78482 15.2777 9.78506 15.2777Z" fill="white"/>
</svg>
