<svg width="32" height="32" viewBox="0 0 32 32" fill="none" xmlns="http://www.w3.org/2000/svg">
<rect width="32" height="32" rx="16" fill="#EC1D1D"/>
<path d="M23.645 12.1513C23.4586 11.4609 22.9209 10.9203 22.2317 10.7357C21.3059 10.3777 12.3386 10.2023 9.73735 10.7459C9.04811 10.9326 8.5084 11.4712 8.32406 12.1615C7.90621 13.9977 7.87447 17.9675 8.3343 19.8447C8.52069 20.535 9.05835 21.0756 9.74759 21.2603C11.5808 21.6829 20.2961 21.7424 22.2419 21.2603C22.9312 21.0736 23.4709 20.535 23.6552 19.8447C24.1007 17.8444 24.1325 14.1208 23.645 12.1513Z" fill="white"/>
<path d="M18.6267 15.998L14.4482 13.5977V18.3983L18.6267 15.998Z" fill="#EC1D1D"/>
</svg>
