<svg width="16" height="16" viewBox="0 0 16 16" fill="none" xmlns="http://www.w3.org/2000/svg">
<path fill-rule="evenodd" clip-rule="evenodd" d="M12.8208 4.73701C12.8691 4.72158 12.9328 4.75243 12.9965 4.83725C12.9965 4.83725 12.9965 4.83725 15.8741 7.67998C16.0422 7.84962 16.0422 8.10664 15.8741 8.23259C15.8741 8.23259 15.8741 8.23259 12.9965 11.119C12.9328 11.2038 12.8691 11.2244 12.8208 11.1987C12.7724 11.173 12.7418 11.0984 12.7418 10.9905V4.92207C12.7418 4.81668 12.7724 4.75243 12.8208 4.73701Z" fill="#ED1C24"/>
<path fill-rule="evenodd" clip-rule="evenodd" d="M7.89807 0H8.10179L8.29788 0.0822493C8.29788 0.0822493 8.29788 0.0822491 11.2595 3.05349C11.3868 3.22313 11.3436 3.35164 11.1322 3.35164C11.1322 3.35164 11.1322 3.35164 9.90475 3.35164C9.69339 3.35164 9.52532 3.52128 9.52532 3.73462C9.52532 3.73462 9.52532 3.73462 9.52532 5.93992C9.52532 6.15325 9.3547 6.32289 9.10004 6.32289C9.10004 6.32289 9.10004 6.32289 6.94311 6.32289C6.73175 6.32289 6.56113 6.15325 6.56113 5.93992C6.56113 5.93992 6.56113 5.93992 6.56113 3.73462C6.56113 3.52128 6.39306 3.35164 6.17915 3.35164H4.86767C4.65631 3.35164 4.61302 3.22313 4.74034 3.05349C4.74034 3.05349 4.74034 3.05349 7.70453 0.0822493L7.89807 0Z" fill="#ED1C24"/>
<path fill-rule="evenodd" clip-rule="evenodd" d="M3.25831 4.67277C3.31179 4.69847 3.3449 4.77301 3.3449 4.88096V11.0753C3.3449 11.1833 3.31179 11.2475 3.25831 11.2681C3.20738 11.2887 3.13353 11.2681 3.04695 11.2039C3.04695 11.2039 3.04695 11.2039 0.126054 8.23261C-0.0420181 8.10666 -0.0420181 7.84963 0.126054 7.68C0.126054 7.68 0.126055 7.67999 3.04695 4.75244C3.13353 4.66763 3.20738 4.64706 3.25831 4.67277Z" fill="#ED1C24"/>
<path fill-rule="evenodd" clip-rule="evenodd" d="M6.94328 9.54858C6.94328 9.54858 6.94328 9.54858 9.10021 9.54858C9.35486 9.54858 9.52548 9.71822 9.52548 9.93156C9.52548 9.93156 9.52548 9.93156 9.52548 12.2654C9.52548 12.5198 9.69355 12.6895 9.90492 12.6895H11.0483C11.2597 12.6895 11.3437 12.8154 11.1756 12.9439C11.1756 12.9439 11.1756 12.9439 8.29804 15.8715C8.21146 15.9563 8.10705 16 8.00009 16C7.89569 16 7.78873 15.9563 7.7047 15.8715C7.7047 15.8715 7.7047 15.8715 4.82709 12.9439C4.65647 12.8154 4.74051 12.6895 4.95187 12.6895C4.95187 12.6895 4.95187 12.6895 6.17931 12.6895C6.39322 12.6895 6.56129 12.5198 6.56129 12.2654C6.56129 12.2654 6.56129 12.2654 6.56129 9.93156C6.56129 9.71822 6.73191 9.54858 6.94328 9.54858Z" fill="#ED1C24"/>
</svg>
