<svg width="14" height="16" viewBox="0 0 14 16" fill="none" xmlns="http://www.w3.org/2000/svg">
<path d="M0.560547 8.06445C0.560547 10.6963 1.16211 13.2939 2.57031 14.6748C3.21973 15.3174 4.04688 15.7002 5.0791 15.6865C6.09766 15.666 6.83594 15.0166 6.67188 14.0527L6.24805 11.5713C6.11133 10.7373 5.75586 10.4297 4.8877 10.4297H4.45703C3.71191 10.4297 3.58887 9.64355 3.58887 8.06445C3.58887 6.47852 3.71191 5.69238 4.45703 5.69238H4.8877C5.74219 5.69238 6.10449 5.40527 6.24805 4.55078L6.67188 2.06934C6.83594 1.10547 6.09766 0.462891 5.0791 0.442383C4.04688 0.428711 3.21973 0.811523 2.57031 1.4541C1.16211 2.83496 0.560547 5.43262 0.560547 8.06445ZM6.67871 8.63867H10.2334L11.5527 8.57031L10.2061 9.75977L9.51562 10.457C9.40625 10.5664 9.34473 10.7168 9.34473 10.8809C9.34473 11.2021 9.57715 11.4277 9.8916 11.4277C10.0557 11.4277 10.1992 11.3662 10.3018 11.2637L13.043 8.53613C13.1865 8.38574 13.2686 8.22168 13.2686 8.06445C13.2686 7.90723 13.1865 7.74316 13.043 7.59277L10.3018 4.86523C10.1992 4.75586 10.0557 4.70117 9.8916 4.70117C9.57715 4.70117 9.34473 4.92676 9.34473 5.24805C9.34473 5.41211 9.40625 5.5625 9.51562 5.66504L10.2061 6.36914L11.5527 7.55859L10.2334 7.49023H6.67871C6.33008 7.49023 6.10449 7.75684 6.10449 8.06445C6.10449 8.37207 6.33008 8.63867 6.67871 8.63867Z" fill="#5B636F"/>
</svg>
