<svg width="13" height="11" viewBox="0 0 13 11" fill="none" xmlns="http://www.w3.org/2000/svg">
<path d="M3.39893 0.191406C2.21729 0.191406 0.987305 0.739258 0.434082 1.68994C0.375 1.79736 0.369629 1.86719 0.369629 2.06592V9.64453C0.369629 9.8916 0.525391 10.042 0.793945 10.042C0.922852 10.042 1.04639 10.0044 1.14307 9.91309C1.81982 9.33301 2.7168 9.03223 3.61377 9.03223C4.45166 9.03223 5.23047 9.32764 5.7998 9.81641C5.85889 9.86475 5.92871 9.8916 5.98779 9.8916C6.10596 9.8916 6.20264 9.80566 6.20264 9.66602V1.72217C6.20264 1.58252 6.19189 1.55029 6.08984 1.40527C5.56348 0.647949 4.53223 0.191406 3.39893 0.191406ZM9.70996 0.191406C8.57666 0.191406 7.54541 0.647949 7.01904 1.40527C6.91699 1.55029 6.90625 1.58252 6.90625 1.72217V9.66602C6.90625 9.80566 7.00293 9.8916 7.12109 9.8916C7.18018 9.8916 7.25537 9.86475 7.30908 9.81641C7.87842 9.32764 8.65723 9.03223 9.49512 9.03223C10.3921 9.03223 11.2891 9.33301 11.9658 9.91309C12.0625 10.0044 12.186 10.042 12.3149 10.042C12.5835 10.042 12.7393 9.8916 12.7393 9.64453V2.06592C12.7393 1.86719 12.7339 1.79199 12.6748 1.68994C12.1216 0.739258 10.8916 0.191406 9.70996 0.191406Z" fill="#3C3C87"/>
</svg>
