<svg width="22" height="22" viewBox="0 0 22 22" fill="none" xmlns="http://www.w3.org/2000/svg">
<path d="M4.31055 21.4414C4.71094 21.7539 5.21875 21.6465 5.82422 21.207L10.9902 17.4082L16.166 21.207C16.7715 21.6465 17.2695 21.7539 17.6797 21.4414C18.0801 21.1387 18.168 20.6406 17.9238 19.9277L15.8828 13.8535L21.0977 10.1035C21.7031 9.67383 21.9473 9.22461 21.791 8.73633C21.6348 8.26758 21.1758 8.0332 20.4238 8.04297L14.0273 8.08203L12.084 1.97852C11.8496 1.25586 11.498 0.894531 10.9902 0.894531C10.4922 0.894531 10.1406 1.25586 9.90625 1.97852L7.96289 8.08203L1.56641 8.04297C0.814453 8.0332 0.355469 8.26758 0.199219 8.73633C0.0332031 9.22461 0.287109 9.67383 0.892578 10.1035L6.10742 13.8535L4.06641 19.9277C3.82227 20.6406 3.91016 21.1387 4.31055 21.4414ZM5.7168 19.5078C5.69727 19.4883 5.70703 19.4785 5.7168 19.4199L7.66016 13.834C7.79688 13.4531 7.71875 13.1504 7.37695 12.916L2.51367 9.55664C2.46484 9.52734 2.45508 9.50781 2.46484 9.47852C2.47461 9.44922 2.49414 9.44922 2.55273 9.44922L8.46094 9.55664C8.86133 9.56641 9.11523 9.40039 9.24219 9L10.9414 3.3457C10.9512 3.28711 10.9707 3.26758 10.9902 3.26758C11.0195 3.26758 11.0391 3.28711 11.0488 3.3457L12.748 9C12.875 9.40039 13.1289 9.56641 13.5293 9.55664L19.4375 9.44922C19.4961 9.44922 19.5156 9.44922 19.5254 9.47852C19.5352 9.50781 19.5156 9.52734 19.4766 9.55664L14.6133 12.916C14.2715 13.1504 14.1934 13.4531 14.3301 13.834L16.2734 19.4199C16.2832 19.4785 16.293 19.4883 16.2734 19.5078C16.2539 19.5371 16.2246 19.5176 16.1855 19.4883L11.4883 15.9043C11.1758 15.6602 10.8145 15.6602 10.502 15.9043L5.80469 19.4883C5.76562 19.5176 5.73633 19.5371 5.7168 19.5078Z" fill="#EA33C0"/>
</svg>
