<svg width="22" height="22" viewBox="0 0 14 12" fill="none" xmlns="http://www.w3.org/2000/svg">
<path d="M3.3208 11.3428C3.54102 11.5146 3.82031 11.4556 4.15332 11.2139L6.99463 9.12451L9.84131 11.2139C10.1743 11.4556 10.4482 11.5146 10.6738 11.3428C10.894 11.1763 10.9424 10.9023 10.8081 10.5103L9.68555 7.16943L12.5537 5.10693C12.8867 4.87061 13.021 4.62354 12.9351 4.35498C12.8491 4.09717 12.5967 3.96826 12.1831 3.97363L8.66504 3.99512L7.59619 0.638184C7.46729 0.240723 7.27393 0.0419922 6.99463 0.0419922C6.7207 0.0419922 6.52734 0.240723 6.39844 0.638184L5.32959 3.99512L1.81152 3.97363C1.39795 3.96826 1.14551 4.09717 1.05957 4.35498C0.968262 4.62354 1.10791 4.87061 1.44092 5.10693L4.30908 7.16943L3.18652 10.5103C3.05225 10.9023 3.10059 11.1763 3.3208 11.3428Z" fill="#EA33C0"/>
</svg>
