<svg width="16" height="16" viewBox="0 0 16 16" fill="none" xmlns="http://www.w3.org/2000/svg">
<path d="M0.770996 6.37891C0.770996 9.66748 3.44434 12.3408 6.73291 12.3408C7.95605 12.3408 9.07666 11.9673 10.0142 11.3301L13.3833 14.6992C13.5884 14.9116 13.874 15.0068 14.1597 15.0068C14.7822 15.0068 15.229 14.5381 15.229 13.9302C15.229 13.6372 15.1265 13.3662 14.9287 13.1611L11.5815 9.80664C12.2773 8.84717 12.6948 7.66064 12.6948 6.37891C12.6948 3.09033 10.0215 0.416992 6.73291 0.416992C3.44434 0.416992 0.770996 3.09033 0.770996 6.37891ZM2.32373 6.37891C2.32373 3.94727 4.29395 1.96973 6.73291 1.96973C9.16455 1.96973 11.1421 3.94727 11.1421 6.37891C11.1421 8.81055 9.16455 10.7881 6.73291 10.7881C4.29395 10.7881 2.32373 8.81055 2.32373 6.37891Z" fill="#828A96"/>
</svg>
