<svg width="24" height="21" viewBox="0 0 24 21" fill="none" xmlns="http://www.w3.org/2000/svg">
<path d="M8.38672 15.5059H19.7539C20.2129 15.5059 20.6133 15.1543 20.6133 14.6465C20.6133 14.1387 20.2129 13.7871 19.7539 13.7871H8.60156C8.12305 13.7871 7.83008 13.4453 7.76172 12.9473L7.61523 11.9316H19.832C21.3164 11.9316 22.0977 11.0234 22.3223 9.54883L23.0547 4.63672C23.0742 4.5 23.0938 4.33398 23.0938 4.23633C23.0938 3.66992 22.6934 3.28906 22.0293 3.28906H6.35547L6.19922 2.21484C6.08203 1.375 5.75 0.945312 4.66602 0.945312H1.30664C0.828125 0.945312 0.408203 1.36523 0.408203 1.86328C0.408203 2.35156 0.828125 2.77148 1.30664 2.77148H4.38281L5.90625 13.1426C6.12109 14.6074 6.90234 15.5059 8.38672 15.5059ZM21.0918 5.00781L20.4668 9.37305C20.3984 9.88086 20.125 10.2031 19.6367 10.2031L7.36133 10.2129L6.60938 5.00781H21.0918ZM9.17773 20.3887C10.125 20.3887 10.8672 19.6367 10.8672 18.6992C10.8672 17.752 10.125 17 9.17773 17C8.24023 17 7.48828 17.752 7.48828 18.6992C7.48828 19.6367 8.24023 20.3887 9.17773 20.3887ZM18.2109 20.3887C19.1582 20.3887 19.9102 19.6367 19.9102 18.6992C19.9102 17.752 19.1582 17 18.2109 17C17.2734 17 16.5117 17.752 16.5117 18.6992C16.5117 19.6367 17.2734 20.3887 18.2109 20.3887Z" fill="#222"/>
</svg>
