<svg width="110" height="26" viewBox="0 0 110 26" fill="none" xmlns="http://www.w3.org/2000/svg">
<path d="M33.2238 18.0358L29.2447 12.9972L32.9393 7.95862H29.1852L26.103 12.7039V3.15356H22.9316V18.0358H26.103V13.2999L29.3264 18.0358H33.2238Z" fill="#EA33C0"/>
<path d="M15.505 7.74658C16.8797 7.74658 18.0434 8.25661 18.5723 9.10664V7.95863H21.7455V18.0349H18.6783V16.7598C18.023 17.7163 16.9652 18.2478 15.611 18.2478C12.7343 18.2478 10.5342 16.2703 10.5342 13.0392C10.5342 9.82965 12.8179 7.74658 15.505 7.74658ZM16.1389 10.4041C14.8488 10.4041 13.7065 11.3392 13.7065 13.0402C13.7065 14.6347 14.8702 15.5912 16.1389 15.5912C17.5982 15.5912 18.6773 14.6562 18.6773 13.0402C18.6773 11.3177 17.5991 10.4041 16.1389 10.4041Z" fill="#EA33C0"/>
<path d="M37.0451 7.74658C38.4198 7.74658 39.5835 8.25661 40.1123 9.10664V7.95863H43.2856V18.0349H40.2183V16.7598C39.5621 17.7163 38.5053 18.2478 37.151 18.2478C34.2743 18.2478 32.0742 16.2703 32.0742 13.0392C32.0742 9.82965 34.3589 7.74658 37.0451 7.74658ZM37.6799 10.4041C36.3898 10.4041 35.2475 11.3392 35.2475 13.0402C35.2475 14.6347 36.4112 15.5912 37.6799 15.5912C39.1392 15.5912 40.2183 14.6562 40.2183 13.0402C40.2183 11.3177 39.1392 10.4041 37.6799 10.4041Z" fill="#EA33C0"/>
<path d="M47.6449 3.15454V9.21317C48.3002 8.34165 49.4425 7.74662 50.7122 7.74662C53.377 7.74662 55.5771 9.82969 55.5771 13.0402C55.5771 16.2498 53.4198 18.2488 50.6062 18.2488C49.2734 18.2488 48.1952 17.7388 47.539 16.8673V18.0368H44.4717V3.15641L47.6449 3.15454ZM52.4048 13.0393C52.4048 11.3383 51.347 10.4032 49.9723 10.4032C48.5976 10.4032 47.5399 11.3383 47.5399 13.0393C47.5399 14.6544 48.619 15.5903 49.9723 15.5903C51.3257 15.5903 52.4048 14.6553 52.4048 13.0393Z" fill="#EA33C0"/>
<path d="M61.7791 7.74194C58.6161 7.74194 56.2803 9.83248 56.2803 12.9907C56.2803 16.1489 58.6151 18.2395 61.7791 18.2395C64.9635 18.2395 67.2983 16.1489 67.2983 12.9907C67.2983 9.83248 64.9635 7.74194 61.7791 7.74194ZM61.7893 15.5446C60.4081 15.5446 59.2881 14.5563 59.2881 12.9421C59.2881 11.3439 60.4081 10.3397 61.7893 10.3397C63.1705 10.3397 64.2905 11.3644 64.2905 12.9421C64.2914 14.546 63.1714 15.5446 61.7893 15.5446Z" fill="#EA33C0"/>
<path d="M73.4802 7.74194C70.3172 7.74194 67.9814 9.83248 67.9814 12.9907C67.9814 16.1489 70.3163 18.2395 73.4802 18.2395C76.6646 18.2395 78.9995 16.1489 78.9995 12.9907C79.0004 9.83248 76.6656 7.74194 73.4802 7.74194ZM73.4914 15.5446C72.1102 15.5446 70.9902 14.5563 70.9902 12.9421C70.9902 11.3439 72.1102 10.3397 73.4914 10.3397C74.8726 10.3397 75.9926 11.3644 75.9926 12.9421C75.9926 14.546 74.8726 15.5446 73.4914 15.5446Z" fill="#EA33C0"/>
<path d="M1.66377 21.6479H4.837L11.4651 7.95947H8.29187L5.71071 13.2951L3.27827 7.95947H0L4.06089 16.6962L1.66377 21.6479Z" fill="#EA33C0"/>
<path d="M84.1289 13C84.1289 20.1786 89.9195 26 97.0644 26C104.209 26 110 20.1796 110 13C110 5.82044 104.209 0 97.0644 0C89.9205 0 84.1289 5.82044 84.1289 13ZM87.7948 10.5993C87.7948 9.71847 88.5049 9.00481 89.3814 9.00481C90.2579 9.00481 90.968 9.71847 90.968 10.5993C90.968 11.4802 90.2579 12.1939 89.3814 12.1939C88.5049 12.1939 87.7948 11.4793 87.7948 10.5993ZM87.7948 15.382C87.7948 14.5011 88.5049 13.7875 89.3814 13.7875C90.2579 13.7875 90.968 14.5011 90.968 15.382C90.968 16.2628 90.2579 16.9765 89.3814 16.9765C88.5049 16.9765 87.7948 16.2628 87.7948 15.382ZM106.175 13.8902V17.0793L101.248 14.6702L92.5546 18.7513V15.4567L97.8638 13.0121L92.5546 10.4191V7.23001L106.175 13.8902Z" fill="#EA33C0"/>
</svg>
