<svg width="10" height="16" viewBox="0 0 10 16" fill="none" xmlns="http://www.w3.org/2000/svg">
<path d="M0.358398 13.6562C0.358398 14.7842 1.15137 15.543 2.32715 15.543H7.7002C8.8623 15.543 9.63477 14.7842 9.63477 13.6562V2.46582C9.63477 1.33789 8.8623 0.579102 7.7002 0.579102H2.32715C1.15137 0.579102 0.358398 1.33789 0.358398 2.46582V13.6562ZM3.6123 1.91211C3.6123 1.73438 3.73535 1.61816 3.90625 1.61816H6.10059C6.27148 1.61816 6.3877 1.73438 6.3877 1.91211C6.3877 2.08301 6.27148 2.19922 6.10059 2.19922H3.90625C3.73535 2.19922 3.6123 2.08301 3.6123 1.91211ZM1.69824 12.9727V3.15625H8.30176V12.9727H1.69824ZM5.00684 14.7842C4.65137 14.7842 4.37109 14.4971 4.37109 14.1484C4.37109 13.7998 4.65137 13.5195 5.00684 13.5195C5.35547 13.5195 5.63574 13.7998 5.63574 14.1484C5.63574 14.4971 5.35547 14.7842 5.00684 14.7842Z" fill="#5B636F"/>
</svg>
