<svg width="11" height="16" viewBox="0 0 11 16" fill="none" xmlns="http://www.w3.org/2000/svg">
<path d="M10.5212 9.18522C10.5208 9.18512 5.21991 7.9864 5.21991 7.9864C3.6399 7.62909 2.64875 6.05944 3.0062 4.48045C3.36386 2.90146 4.93463 1.91122 6.51464 2.26842C8.09476 2.62574 9.0858 4.19537 8.72833 5.77426C8.54921 6.56478 8.06597 7.20716 7.42974 7.60735C7.42964 7.60735 7.4281 7.60865 7.42751 7.60896C7.40879 7.62238 7.39669 7.64423 7.39669 7.66881C7.39669 7.70324 7.42048 7.73219 7.45262 7.73992C7.45273 7.74002 9.81078 8.27288 9.8112 8.27288C9.86731 8.2856 9.92556 8.26396 9.96005 8.21844C9.96023 8.21803 9.96015 8.21834 9.96015 8.21834C10.6098 7.35934 11 6.28751 11 5.12821C11 2.39807 8.86549 0.16692 6.17314 0.00845051C6.14915 0.0071249 6.00324 0.0014286 5.95395 0.0007267C4.76189 -0.0179729 3.55326 0.323592 2.50223 1.05913C-0.151996 2.91628 -0.796872 6.57178 1.0614 9.22403L5.77764 15.9548C5.79778 15.9822 5.83021 16 5.8666 16C5.9033 16 5.93583 15.9819 5.95587 15.9543C5.95587 15.9543 10.5871 9.35436 10.5875 9.35376C10.5993 9.33628 10.6063 9.31506 10.6063 9.2923C10.6063 9.24008 10.57 9.19638 10.5212 9.18522Z" fill="#FABC26"/>
</svg>
