<svg width="18" height="18" viewBox="0 0 18 18" fill="none" xmlns="http://www.w3.org/2000/svg">
<path d="M0 9C0 13.9698 4.02888 18 9 18C13.9711 18 18 13.9705 18 9C18 4.02953 13.9711 0 9 0C4.02953 0 0 4.02953 0 9ZM2.55055 7.338C2.55055 6.72817 3.04462 6.2341 3.65445 6.2341C4.26428 6.2341 4.75835 6.72817 4.75835 7.338C4.75835 7.94783 4.26428 8.44191 3.65445 8.44191C3.04462 8.44191 2.55055 7.94719 2.55055 7.338ZM2.55055 10.6491C2.55055 10.0392 3.04462 9.54516 3.65445 9.54516C4.26428 9.54516 4.75835 10.0392 4.75835 10.6491C4.75835 11.2589 4.26428 11.753 3.65445 11.753C3.04462 11.753 2.55055 11.2589 2.55055 10.6491ZM15.3389 9.6163V11.8241L11.9108 10.1563L5.86226 12.9817V10.7008L9.55616 9.00841L5.86226 7.21319V5.00539L15.3389 9.6163Z" fill="#EA33C0"/>
</svg>
