<svg width="93" height="22" viewBox="0 0 93 22" fill="none" xmlns="http://www.w3.org/2000/svg">
<path d="M28.0896 15.261L24.7254 10.9976L27.8491 6.7342H24.6751L22.0693 10.7494V2.66838H19.3881V15.261H22.0693V11.2537L24.7946 15.261H28.0896Z" fill="#EA33C0"/>
<path d="M13.1091 6.55482C14.2714 6.55482 15.2552 6.98638 15.7024 7.70565V6.73425H18.3852V15.2603H15.7919V14.1814C15.2379 14.9908 14.3437 15.4405 13.1987 15.4405C10.7666 15.4405 8.90649 13.7672 8.90649 11.0332C8.90649 8.31742 10.8373 6.55482 13.1091 6.55482ZM13.6451 8.80351C12.5543 8.80351 11.5885 9.5947 11.5885 11.034C11.5885 12.3832 12.5724 13.1926 13.6451 13.1926C14.8788 13.1926 15.7912 12.4014 15.7912 11.034C15.7912 9.57652 14.8796 8.80351 13.6451 8.80351Z" fill="#EA33C0"/>
<path d="M31.3201 6.55482C32.4823 6.55482 33.4662 6.98638 33.9133 7.70565V6.73425H36.5961V15.2603H34.0029V14.1814C33.4481 14.9908 32.5546 15.4405 31.4096 15.4405C28.9775 15.4405 27.1174 13.7672 27.1174 11.0332C27.1174 8.31742 29.049 6.55482 31.3201 6.55482ZM31.8568 8.80351C30.766 8.80351 29.8003 9.5947 29.8003 11.034C29.8003 12.3832 30.7841 13.1926 31.8568 13.1926C33.0905 13.1926 34.0029 12.4014 34.0029 11.034C34.0029 9.57652 33.0905 8.80351 31.8568 8.80351Z" fill="#EA33C0"/>
<path d="M40.2817 2.66915V7.79569C40.8357 7.05824 41.8015 6.55476 42.875 6.55476C45.1279 6.55476 46.988 8.31735 46.988 11.034C46.988 13.7498 45.1641 15.4412 42.7854 15.4412C41.6585 15.4412 40.7469 15.0097 40.1921 14.2722V15.2618H37.5989V2.67073L40.2817 2.66915ZM44.3059 11.0332C44.3059 9.59385 43.4117 8.80266 42.2494 8.80266C41.0872 8.80266 40.1929 9.59385 40.1929 11.0332C40.1929 12.3998 41.1053 13.1918 42.2494 13.1918C43.3936 13.1918 44.3059 12.4006 44.3059 11.0332Z" fill="#EA33C0"/>
<path d="M52.231 6.55081C49.5568 6.55081 47.582 8.31973 47.582 10.9921C47.582 13.6644 49.556 15.4333 52.231 15.4333C54.9233 15.4333 56.8973 13.6644 56.8973 10.9921C56.8973 8.31973 54.9233 6.55081 52.231 6.55081ZM52.2397 13.153C51.0719 13.153 50.125 12.3168 50.125 10.951C50.125 9.5986 51.0719 8.74892 52.2397 8.74892C53.4074 8.74892 54.3543 9.61598 54.3543 10.951C54.3551 12.3081 53.4082 13.153 52.2397 13.153Z" fill="#EA33C0"/>
<path d="M62.1238 6.55081C59.4497 6.55081 57.4749 8.31973 57.4749 10.9921C57.4749 13.6644 59.4489 15.4333 62.1238 15.4333C64.8161 15.4333 66.7901 13.6644 66.7901 10.9921C66.7909 8.31973 64.8169 6.55081 62.1238 6.55081ZM62.1333 13.153C60.9655 13.153 60.0186 12.3168 60.0186 10.951C60.0186 9.5986 60.9655 8.74892 62.1333 8.74892C63.301 8.74892 64.2479 9.61598 64.2479 10.951C64.2479 12.3081 63.301 13.153 62.1333 13.153Z" fill="#EA33C0"/>
<path d="M1.40664 18.3175H4.08947L9.69323 6.73499H7.0104L4.82815 11.2498L2.77163 6.73499H0L3.4333 14.1276L1.40664 18.3175Z" fill="#EA33C0"/>
<path d="M71.1272 11C71.1272 17.0742 76.0229 22 82.0636 22C88.1043 22 93 17.075 93 11C93 4.92498 88.1043 0 82.0636 0C76.0237 0 71.1272 4.92498 71.1272 11ZM74.2265 8.96867C74.2265 8.22332 74.8269 7.61946 75.5679 7.61946C76.309 7.61946 76.9093 8.22332 76.9093 8.96867C76.9093 9.71402 76.309 10.3179 75.5679 10.3179C74.8269 10.3179 74.2265 9.71323 74.2265 8.96867ZM74.2265 13.0155C74.2265 12.2702 74.8269 11.6663 75.5679 11.6663C76.309 11.6663 76.9093 12.2702 76.9093 13.0155C76.9093 13.7609 76.309 14.3647 75.5679 14.3647C74.8269 14.3647 74.2265 13.7609 74.2265 13.0155ZM89.7663 11.7533V14.4517L85.6006 12.4132L78.2508 15.8665V13.0788L82.7394 11.0103L78.2508 8.81612V6.1177L89.7663 11.7533Z" fill="#EA33C0"/>
</svg>
