<svg width="540" height="373" viewBox="0 0 540 373" fill="none" xmlns="http://www.w3.org/2000/svg">
<path d="M341.521 134.854H339.296V218.531H341.521V134.854Z" fill="#7D7D7D"/>
<path d="M167.604 49.2559H101.345V82.6742H167.604V49.2559Z" fill="#C9C9C9"/>
<path d="M257.976 4.00977L256.94 5.26974C256.996 5.31559 262.701 10.0089 273.154 17.3947C282.793 24.2064 298.568 34.7741 318.978 46.4442C341.915 59.5595 365.913 71.3653 390.307 81.5333C420.8 94.2452 451.999 104.419 483.038 111.773L483.413 110.183C413.329 93.5776 355.768 65.5954 319.824 45.0467C280.87 22.7776 258.202 4.195 257.976 4.00977Z" fill="#7D7D7D"/>
<path d="M256.351 0C256.348 0 256.342 0 256.338 0C254.415 0.00550216 252.814 1.26551 252.354 3.13441L231.732 86.9525L236.154 88.0437L256.355 5.93685L277.195 88.5664L281.61 87.4495L260.339 3.11055C259.87 1.24898 258.269 0 256.351 0Z" fill="#DFE8F5"/>
<path d="M257.458 4.63929C257.158 5.28671 257.44 6.05515 258.085 6.3541L483.227 110.978L484.313 108.634L259.171 4.01022C258.526 3.71127 257.759 3.99187 257.458 4.63929Z" fill="#DFE8F5"/>
<path d="M125.515 82.6719H117.251V360.742H125.515V82.6719Z" fill="#DFE8F5"/>
<path d="M131.174 82.6719H125.515V360.742H131.174V82.6719Z" fill="#C9C9C9"/>
<path d="M52.9731 148.664C45.367 148.664 39.1787 142.469 39.1787 134.854H37.1562C37.1562 143.585 44.2514 150.689 52.9731 150.689C61.6949 150.689 68.79 143.585 68.79 134.854H66.7694C66.7676 142.469 60.5793 148.664 52.9731 148.664Z" fill="#7D7D7D"/>
<path d="M82.5835 148.664C74.9773 148.664 68.7891 142.469 68.7891 134.854H66.7686C66.7686 143.585 73.8636 150.689 82.5854 150.689C91.3072 150.689 98.4022 143.585 98.4022 134.854H96.3797C96.3779 142.469 90.1896 148.664 82.5835 148.664Z" fill="#7D7D7D"/>
<path d="M112.196 148.664C104.59 148.664 98.4014 142.469 98.4014 134.854H96.3789C96.3789 143.585 103.474 150.689 112.196 150.689C120.918 150.689 128.013 143.585 128.013 134.854H125.992C125.99 142.469 119.802 148.664 112.196 148.664Z" fill="#7D7D7D"/>
<path d="M141.807 148.664C134.201 148.664 128.013 142.469 128.013 134.854H125.992C125.992 143.585 133.087 150.689 141.809 150.689C150.531 150.689 157.626 143.585 157.626 134.854H155.604C155.604 142.469 149.415 148.664 141.807 148.664Z" fill="#7D7D7D"/>
<path d="M171.419 148.664C163.812 148.664 157.624 142.469 157.624 134.854H155.604C155.604 143.585 162.699 150.689 171.42 150.689C180.142 150.689 187.237 143.585 187.237 134.854H185.217C185.215 142.469 179.027 148.664 171.419 148.664Z" fill="#7D7D7D"/>
<path d="M201.03 148.664C193.424 148.664 187.236 142.469 187.236 134.854H185.215C185.215 143.585 192.31 150.689 201.032 150.689C209.754 150.689 216.849 143.585 216.849 134.854H214.827C214.825 142.469 208.637 148.664 201.03 148.664Z" fill="#7D7D7D"/>
<path d="M125.515 273.274L277.592 93.2929V82.6719L125.515 262.655V273.274Z" fill="#DFE8F5"/>
<path d="M277.592 82.6719H269.329V360.742H277.592V82.6719Z" fill="#DFE8F5"/>
<path d="M283.251 82.6719H277.592V360.742H283.251V82.6719Z" fill="#C9C9C9"/>
<path d="M68.4512 107.877L55.2632 130.522H502.174L486.013 107.877H68.4512ZM59.3685 128.349L70.4077 109.806L83.7587 128.349H59.3685ZM73.5201 109.806H97.1501L86.1623 128.349L73.5201 109.806ZM88.8955 128.349L99.9346 109.806L113.286 128.349H88.8955ZM103.045 109.806H126.675L115.687 128.349L103.045 109.806ZM118.421 128.349L129.46 109.806L142.811 128.349H118.421ZM132.57 109.806H156.2L145.213 128.349L132.57 109.806ZM147.948 128.349L158.987 109.806L172.338 128.349H147.948ZM162.097 109.806H185.727L174.74 128.349L162.097 109.806ZM177.473 128.349L188.512 109.806L201.863 128.349H177.473ZM191.622 109.806H215.252L204.265 128.349L191.622 109.806ZM206.998 128.349L218.037 109.806L231.388 128.349H206.998ZM221.149 109.806H244.78L233.792 128.349L221.149 109.806ZM236.525 128.349L247.562 109.806L260.913 128.349H236.525ZM250.675 109.806H274.306L263.319 128.349L250.675 109.806ZM266.05 128.349L277.087 109.806L290.439 128.349H266.05ZM280.202 109.806H303.832L292.844 128.349L280.202 109.806ZM295.577 128.349L306.616 109.806L319.967 128.349H295.577ZM309.727 109.806H333.357L322.371 128.349L309.727 109.806ZM325.102 128.349L336.139 109.806L349.491 128.349H325.102ZM339.252 109.806H362.884L351.896 128.349L339.252 109.806ZM354.627 128.349L365.665 109.806L379.016 128.349H354.627ZM368.779 109.806H392.409L381.421 128.349L368.779 109.806ZM384.154 128.349L395.193 109.806L408.545 128.349H384.154ZM398.304 109.806H421.934L410.946 128.349L398.304 109.806ZM413.679 128.349L424.717 109.806L438.068 128.349H413.679ZM427.831 109.806H451.463L440.475 128.349L427.831 109.806ZM443.206 128.349L454.244 109.806L467.595 128.349H443.206ZM457.356 109.806H480.986L469.998 128.349L457.356 109.806ZM472.732 128.349L483.771 109.806L497.122 128.349H472.732Z" fill="#C9C9C9"/>
<path d="M35.0972 130.522H482.008L486.014 107.877H68.451L35.0972 130.522ZM478.89 128.349H454.5L482.05 109.806L478.89 128.349ZM479.269 109.806L451.768 128.349L455.637 109.806H479.269ZM449.365 128.349H424.975L452.525 109.806L449.365 128.349ZM449.742 109.806L422.241 128.349L426.111 109.806H449.742ZM419.84 128.349H395.45L423 109.806L419.84 128.349ZM420.217 109.806L392.716 128.349L396.585 109.806H420.217ZM390.313 128.349H365.923L393.473 109.806L390.313 128.349ZM390.69 109.806L363.189 128.349L367.059 109.806H390.69ZM360.788 128.349H336.398L363.948 109.806L360.788 128.349ZM361.165 109.806L333.664 128.349L337.533 109.806H361.165ZM331.261 128.349H306.872L334.423 109.806L331.261 128.349ZM331.638 109.806L304.139 128.349L308.008 109.806H331.638ZM301.736 128.349H277.345L304.896 109.806L301.736 128.349ZM302.113 109.806L274.612 128.349L278.481 109.806H302.113ZM272.211 128.349H247.82L275.371 109.806L272.211 128.349ZM272.588 109.806L245.087 128.349L248.956 109.806H272.588ZM242.684 128.349H218.293L245.844 109.806L242.684 128.349ZM243.061 109.806L215.56 128.349L219.429 109.806H243.061ZM213.158 128.349H188.768L216.318 109.806L213.158 128.349ZM213.536 109.806L186.035 128.349L189.904 109.806H213.536ZM183.631 128.349H159.241L186.792 109.806L183.631 128.349ZM184.009 109.806L156.51 128.349L160.379 109.806H184.009ZM154.106 128.349H129.716L157.266 109.806L154.106 128.349ZM154.484 109.806L126.985 128.349L130.854 109.806H154.484ZM124.579 128.349H100.189L127.739 109.806L124.579 128.349ZM124.959 109.806L97.4577 128.349L101.327 109.806H124.959ZM95.0542 128.349H70.664L98.2143 109.806L95.0542 128.349ZM95.4316 109.806L67.9325 128.349L71.8016 109.806H95.4316ZM65.5291 128.349H41.1389L68.6892 109.806L65.5291 128.349Z" fill="#DFE8F5"/>
<path d="M84.6671 82.6719H76.4033V360.742H84.6671V82.6719Z" fill="#DFE8F5"/>
<path d="M502.174 130.521H35.0973V134.854H502.174V130.521Z" fill="#DFE8F5"/>
<path d="M90.3238 82.6719H84.665V360.742H90.3238V82.6719Z" fill="#C9C9C9"/>
<path d="M236.744 82.6719H228.48V360.742H236.744V82.6719Z" fill="#DFE8F5"/>
<path d="M242.401 82.6719H236.743V360.742H242.401V82.6719Z" fill="#C9C9C9"/>
<path d="M236.744 82.6719H76.4033V93.291H236.744V82.6719Z" fill="#DFE8F5"/>
<path d="M283.25 82.6719H236.743V93.291H283.25V82.6719Z" fill="#C9C9C9"/>
<path d="M236.744 273.274H76.4033V283.893H236.744V273.274Z" fill="#DFE8F5"/>
<path d="M84.665 273.274L236.742 93.2929V82.6719L84.665 262.655V273.274Z" fill="#DFE8F5"/>
<path d="M290.46 130.521H264.888V134.854H290.46V130.521Z" fill="#D84C3D"/>
<path d="M334.857 130.521H309.285V134.854H334.857V130.521Z" fill="#D84C3D"/>
<path d="M379.252 130.521H353.68V134.854H379.252V130.521Z" fill="#D84C3D"/>
<path d="M423.648 130.521H398.076V134.854H423.648V130.521Z" fill="#D84C3D"/>
<path d="M468.045 130.521H442.473V134.854H468.045V130.521Z" fill="#D84C3D"/>
<path d="M482.008 130.522L482.391 134.854H502.174V130.522L486.014 107.877L482.008 130.522Z" fill="#C9C9C9"/>
<path d="M502.174 130.521H482.008V134.854H502.174V130.521Z" fill="#D84C3D"/>
<path d="M255.224 0.711398L103.064 84.6992L105.262 88.692L257.422 4.70413L255.224 0.711398Z" fill="#DFE8F5"/>
<path d="M101.347 49.2559H64.0045V82.6742H101.347V49.2559Z" fill="#DFE8F5"/>
<path d="M507.353 125.877H488.345V134.855H507.353V125.877Z" fill="#7D7D7D"/>
<path d="M502.299 299.718H246.835V305.509H502.299V299.718Z" fill="white"/>
<path d="M502.299 211.846H246.835V299.717H502.299V211.846Z" fill="#CFC8BE"/>
<path d="M502.298 211.846H493.387V299.717H502.298V211.846Z" fill="white"/>
<path d="M489.276 214.368H490.867L493.387 211.846H489.276V214.368Z" fill="#A6957B"/>
<path d="M489.274 211.846H485.07V299.717H489.274V211.846Z" fill="white"/>
<path d="M480.958 214.368H482.549L485.07 211.846H480.958V214.368Z" fill="#A6957B"/>
<path d="M480.958 211.846H476.753V299.717H480.958V211.846Z" fill="white"/>
<path d="M472.64 214.368H474.231L476.753 211.846H472.64V214.368Z" fill="#A6957B"/>
<path d="M472.641 211.846H468.436V299.717H472.641V211.846Z" fill="white"/>
<path d="M464.324 214.368H465.915L468.437 211.846H464.324V214.368Z" fill="#A6957B"/>
<path d="M464.322 211.846H460.118V299.717H464.322V211.846Z" fill="white"/>
<path d="M456.005 214.368H457.598L460.118 211.846H456.005V214.368Z" fill="#A6957B"/>
<path d="M456.005 211.846H451.801V299.717H456.005V211.846Z" fill="white"/>
<path d="M447.689 214.368H449.28L451.801 211.846H447.689V214.368Z" fill="#A6957B"/>
<path d="M447.688 211.846H443.484V299.717H447.688V211.846Z" fill="white"/>
<path d="M439.372 214.368H440.963L443.484 211.846H439.372V214.368Z" fill="#A6957B"/>
<path d="M439.37 211.846H435.166V299.717H439.37V211.846Z" fill="white"/>
<path d="M431.055 214.368H432.646L435.166 211.846H431.055V214.368Z" fill="#A6957B"/>
<path d="M431.053 211.846H426.849V299.717H431.053V211.846Z" fill="white"/>
<path d="M422.737 214.368H424.328L426.849 211.846H422.737V214.368Z" fill="#A6957B"/>
<path d="M422.737 211.846H418.532V299.717H422.737V211.846Z" fill="white"/>
<path d="M414.42 214.368H416.011L418.532 211.846H414.42V214.368Z" fill="#A6957B"/>
<path d="M414.419 211.846H410.215V299.717H414.419V211.846Z" fill="white"/>
<path d="M406.103 214.368H407.694L410.215 211.846H406.103V214.368Z" fill="#A6957B"/>
<path d="M406.101 211.846H401.897V299.717H406.101V211.846Z" fill="white"/>
<path d="M397.784 214.368H399.375L401.896 211.846H397.784V214.368Z" fill="#A6957B"/>
<path d="M397.784 211.846H393.58V299.717H397.784V211.846Z" fill="white"/>
<path d="M389.467 214.368H391.058L393.58 211.846H389.467V214.368Z" fill="#A6957B"/>
<path d="M389.468 211.846H385.263V299.717H389.468V211.846Z" fill="white"/>
<path d="M381.15 214.368H382.741L385.262 211.846H381.15V214.368Z" fill="#A6957B"/>
<path d="M381.148 211.846H376.944V299.717H381.148V211.846Z" fill="white"/>
<path d="M372.834 214.368H374.425L376.945 211.846H372.834V214.368Z" fill="#A6957B"/>
<path d="M372.832 211.846H368.628V299.717H372.832V211.846Z" fill="white"/>
<path d="M364.515 214.368H366.106L368.628 211.846H364.515V214.368Z" fill="#A6957B"/>
<path d="M364.516 211.846H360.312V299.717H364.516V211.846Z" fill="white"/>
<path d="M356.198 214.368H357.789L360.311 211.846H356.198V214.368Z" fill="#A6957B"/>
<path d="M356.198 211.846H351.994V299.717H356.198V211.846Z" fill="white"/>
<path d="M347.882 214.368H349.473L351.994 211.846H347.882V214.368Z" fill="#A6957B"/>
<path d="M347.88 211.846H343.676V299.717H347.88V211.846Z" fill="white"/>
<path d="M339.563 214.368H341.154L343.675 211.846H339.563V214.368Z" fill="#A6957B"/>
<path d="M339.563 211.846H335.359V299.717H339.563V211.846Z" fill="white"/>
<path d="M331.247 214.368H332.838L335.359 211.846H331.247V214.368Z" fill="#A6957B"/>
<path d="M331.247 211.846H327.042V299.717H331.247V211.846Z" fill="white"/>
<path d="M322.929 214.368H324.52L327.042 211.846H322.929V214.368Z" fill="#A6957B"/>
<path d="M322.927 211.846H318.723V299.717H322.927V211.846Z" fill="white"/>
<path d="M314.612 214.368H316.203L318.723 211.846H314.612V214.368Z" fill="#A6957B"/>
<path d="M314.611 211.846H310.406V299.717H314.611V211.846Z" fill="white"/>
<path d="M306.294 214.368H307.885L310.406 211.846H306.294V214.368Z" fill="#A6957B"/>
<path d="M306.294 211.846H302.089V299.717H306.294V211.846Z" fill="white"/>
<path d="M297.978 214.368H299.569L302.09 211.846H297.978V214.368Z" fill="#A6957B"/>
<path d="M297.977 211.846H293.773V299.717H297.977V211.846Z" fill="white"/>
<path d="M289.66 214.368H291.251L293.772 211.846H289.66V214.368Z" fill="#A6957B"/>
<path d="M289.659 211.846H285.454V299.717H289.659V211.846Z" fill="white"/>
<path d="M281.342 214.368H282.933L285.454 211.846H281.342V214.368Z" fill="#A6957B"/>
<path d="M281.342 211.846H277.138V299.717H281.342V211.846Z" fill="white"/>
<path d="M273.025 214.368H274.616L277.137 211.846H273.025V214.368Z" fill="#A6957B"/>
<path d="M273.024 211.846H268.82V299.717H273.024V211.846Z" fill="white"/>
<path d="M264.708 214.368H266.299L268.821 211.846H264.708V214.368Z" fill="#A6957B"/>
<path d="M264.707 211.846H260.502V299.717H264.707V211.846Z" fill="white"/>
<path d="M256.392 214.368H257.983L260.502 211.846H256.392V214.368Z" fill="#A6957B"/>
<path d="M256.391 211.846H246.835V299.717H256.391V211.846Z" fill="white"/>
<path d="M502.299 206.055H246.835V211.846H502.299V206.055Z" fill="white"/>
<path d="M502.299 211.846H246.835V212.219H502.299V211.846Z" fill="#C9BEAB"/>
<path d="M502.299 299.532H246.835V299.905H502.299V299.532Z" fill="#C9BEAB"/>
<path d="M246.834 206.055H180.085V305.508H246.834V206.055Z" fill="#C9C9C9"/>
<path d="M253.254 211.906H249.866V217.375H253.254V211.906Z" fill="#4F4F4F"/>
<path d="M253.254 294.436H249.866V299.906H253.254V294.436Z" fill="#4F4F4F"/>
<path d="M499.436 211.906H496.049V217.375H499.436V211.906Z" fill="#4F4F4F"/>
<path d="M499.436 294.436H496.049V299.906H499.436V294.436Z" fill="#4F4F4F"/>
<path d="M243.448 211.77H240.399V299.733H243.448V211.77Z" fill="#A2A2A2"/>
<path d="M214.646 211.77H211.597V299.733H214.646V211.77Z" fill="#A2A2A2"/>
<path d="M185.772 211.77H182.723V299.733H185.772V211.77Z" fill="#A2A2A2"/>
<path d="M208.744 296.268H188.274V299.736H208.744V296.268Z" fill="#A2A2A2"/>
<path d="M237.8 296.268H217.33V299.736H237.8V296.268Z" fill="#A2A2A2"/>
<path d="M208.744 268.062H188.274V271.53H208.744V268.062Z" fill="#A2A2A2"/>
<path d="M237.8 268.062H217.33V271.53H237.8V268.062Z" fill="#A2A2A2"/>
<path d="M208.744 239.857H188.274V243.325H208.744V239.857Z" fill="#A2A2A2"/>
<path d="M237.8 239.857H217.33V243.325H237.8V239.857Z" fill="#A2A2A2"/>
<path d="M208.744 211.652H188.274V215.12H208.744V211.652Z" fill="#A2A2A2"/>
<path d="M237.8 211.652H217.33V215.12H237.8V211.652Z" fill="#A2A2A2"/>
<path d="M219.106 207.234H217.331V304.153H219.106V207.234Z" fill="white"/>
<path d="M220.873 207.234H219.108V211.653H220.873V207.234Z" fill="white"/>
<path d="M220.873 243.325H219.108V247.744H220.873V243.325Z" fill="white"/>
<path d="M220.873 271.531H219.108V275.95H220.873V271.531Z" fill="white"/>
<path d="M220.873 299.736H219.108V304.155H220.873V299.736Z" fill="white"/>
<path d="M230.306 207.234H228.531V304.153H230.306V207.234Z" fill="white"/>
<path d="M232.071 207.234H230.305V211.653H232.071V207.234Z" fill="white"/>
<path d="M232.071 243.325H230.305V247.744H232.071V243.325Z" fill="white"/>
<path d="M232.071 271.531H230.306V275.95H232.071V271.531Z" fill="white"/>
<path d="M232.071 299.736H230.305V304.155H232.071V299.736Z" fill="white"/>
<path d="M195.116 207.234H193.341V304.153H195.116V207.234Z" fill="white"/>
<path d="M196.883 207.234H195.117V211.653H196.883V207.234Z" fill="white"/>
<path d="M196.883 243.325H195.117V247.744H196.883V243.325Z" fill="white"/>
<path d="M196.883 271.531H195.118V275.95H196.883V271.531Z" fill="white"/>
<path d="M196.883 299.736H195.117V304.155H196.883V299.736Z" fill="white"/>
<path d="M206.745 207.234H204.969V304.153H206.745V207.234Z" fill="white"/>
<path d="M208.51 207.234H206.744V211.653H208.51V207.234Z" fill="white"/>
<path d="M208.51 243.325H206.744V247.744H208.51V243.325Z" fill="white"/>
<path d="M208.51 271.531H206.745V275.95H208.51V271.531Z" fill="white"/>
<path d="M208.51 299.736H206.744V304.155H208.51V299.736Z" fill="white"/>
<path d="M540 360.742H0.00012207V373H540V360.742Z" fill="#C9C9C9"/>
</svg>
