<svg width="14" height="24" viewBox="0 0 14 24" fill="none" xmlns="http://www.w3.org/2000/svg">
<path d="M13.1923 0.709778L10.1447 0.705078C6.72086 0.705078 4.50823 2.88699 4.50823 6.26407V8.82714H1.44404C1.17926 8.82714 0.964844 9.03347 0.964844 9.28797V13.0016C0.964844 13.2561 1.17951 13.4621 1.44404 13.4621H4.50823V22.8327C4.50823 23.0872 4.72265 23.2933 4.98743 23.2933H8.98532C9.25011 23.2933 9.46453 23.087 9.46453 22.8327V13.4621H13.0473C13.3121 13.4621 13.5265 13.2561 13.5265 13.0016L13.5279 9.28797C13.5279 9.16577 13.4773 9.04874 13.3876 8.96227C13.2979 8.87579 13.1756 8.82714 13.0485 8.82714H9.46453V6.6544C9.46453 5.61009 9.72344 5.07994 11.1388 5.07994L13.1918 5.07924C13.4563 5.07924 13.6707 4.87292 13.6707 4.61865V1.17036C13.6707 0.916337 13.4566 0.710248 13.1923 0.709778Z" fill="#2272FF"/>
</svg>
