<svg width="142" height="42" viewBox="0 0 142 42" fill="none" xmlns="http://www.w3.org/2000/svg">
<g clip-path="url(#clip0_2535_6402)">
<path d="M9.05179 -0.000521047C9.89313 -0.00780728 10.7329 0.0723356 11.5572 0.238581C12.2494 0.372629 12.9083 0.638865 13.4969 1.0223C14.0371 1.38698 14.4694 1.88665 14.7496 2.4702C15.068 3.17115 15.2215 3.93407 15.1986 4.70181C15.2271 5.54394 14.9953 6.37472 14.5341 7.08398C14.035 7.7732 13.3573 8.31759 12.5719 8.66028C13.7573 8.99679 14.6418 9.58716 15.2255 10.4314C15.8271 11.3327 16.1328 12.3947 16.1011 13.4733C16.1232 14.3347 15.9289 15.188 15.5353 15.9573C15.1734 16.6397 14.6516 17.2272 14.0132 17.6709C13.3514 18.1247 12.6123 18.4576 11.8311 18.6538C11.009 18.867 10.1623 18.9742 9.31221 18.9726H0V-0.000521047H9.05179ZM8.513 7.6773C9.17477 7.70464 9.82748 7.51806 10.3718 7.14596C10.8568 6.79174 11.0992 6.21613 11.0992 5.41912C11.114 5.04158 11.0305 4.66661 10.8568 4.32988C10.7044 4.05615 10.4813 3.82702 10.2102 3.66571C9.92352 3.50006 9.60853 3.38752 9.28078 3.33362C8.92061 3.27078 8.55548 3.23966 8.18972 3.24064H4.22956V7.66845L8.513 7.6773ZM8.75546 15.7182C9.15374 15.7197 9.55107 15.6796 9.94081 15.5987C10.2952 15.5279 10.6332 15.3927 10.9376 15.2002C11.2287 15.0101 11.4652 14.7493 11.6245 14.443C11.8089 14.0621 11.8967 13.6427 11.8805 13.2209C11.8805 12.2468 11.6021 11.5516 11.0453 11.1354C10.4886 10.7192 9.75223 10.5111 8.83628 10.5111H4.22956V15.7182H8.75546Z" fill="#2272FF"/>
<path d="M18.6963 4.55578C18.96 3.68295 19.3965 2.8703 19.9805 2.16476C20.5673 1.47385 21.31 0.927955 22.1491 0.570748C23.1014 0.173355 24.1281 -0.0212853 25.1619 -0.000439203C26.0019 -0.00478281 26.8366 0.129922 27.6314 0.398064C28.3839 0.651424 29.0815 1.04194 29.6878 1.54929C30.2869 2.05343 30.7692 2.67856 31.1021 3.38241C31.4597 4.14522 31.6392 4.97741 31.6275 5.8177C31.6518 6.64573 31.4988 7.46952 31.1785 8.23529C30.8809 8.8968 30.4709 9.50329 29.9662 10.0286C29.4499 10.5622 28.8763 11.0387 28.2555 11.4499C27.6179 11.875 26.9758 12.2956 26.3293 12.7118C25.6827 13.128 25.0541 13.5752 24.4435 14.0534C23.8292 14.5353 23.2853 15.0986 22.8271 15.7271H31.7442V18.9683H17.8881C17.8682 18.0119 18.0281 17.0601 18.3596 16.1611C18.6626 15.383 19.095 14.6602 19.6392 14.0224C20.2018 13.3718 20.8392 12.7879 21.5385 12.2823C22.2659 11.751 23.0336 11.2108 23.8418 10.6617C24.2549 10.3784 24.6949 10.0905 25.1619 9.79831C25.6177 9.51451 26.0461 9.18991 26.4415 8.82862C26.8232 8.47984 27.1501 8.07691 27.4114 7.63311C27.6767 7.17191 27.8116 6.64895 27.802 6.1188C27.802 5.21552 27.5371 4.5115 27.0073 4.00673C26.7364 3.75345 26.4169 3.55603 26.0677 3.42602C25.7184 3.29601 25.3464 3.23602 24.9733 3.24957C24.4732 3.2337 23.98 3.36804 23.559 3.63479C23.1716 3.89303 22.8529 4.23926 22.6295 4.64433C22.3904 5.07593 22.2221 5.54222 22.1312 6.02581C22.0334 6.52035 21.9838 7.02298 21.983 7.52684H18.3192C18.2743 6.5226 18.4018 5.51811 18.6963 4.55578Z" fill="#2272FF"/>
<path d="M43.4274 -0.000521047C44.2687 -0.00780728 45.1085 0.0723356 45.9328 0.238581C46.625 0.372629 47.2839 0.638865 47.8725 1.0223C48.4127 1.38698 48.8451 1.88665 49.1252 2.4702C49.4436 3.17115 49.5971 3.93407 49.5742 4.70181C49.6027 5.54394 49.371 6.37472 48.9097 7.08397C48.4118 7.76871 47.7376 8.30985 46.9565 8.65142C48.1419 8.98793 49.0264 9.57831 49.6101 10.4225C50.2117 11.3238 50.5174 12.3859 50.4857 13.4644C50.5078 14.3258 50.3135 15.1792 49.9199 15.9485C49.558 16.6309 49.0362 17.2183 48.3978 17.662C47.736 18.1158 46.9969 18.4488 46.2157 18.645C45.3936 18.8582 44.5469 18.9653 43.6968 18.9638H34.3756V-0.000521047H43.4274ZM42.8796 7.6773C43.5414 7.70464 44.1941 7.51806 44.7385 7.14596C45.2234 6.79174 45.4659 6.21612 45.4659 5.41912C45.4806 5.04158 45.3971 4.66661 45.2234 4.32988C45.071 4.05615 44.848 3.82702 44.5768 3.66571C44.2902 3.50006 43.9752 3.38752 43.6474 3.33362C43.2872 3.27078 42.9221 3.23966 42.5564 3.24064H38.6142V7.66845L42.8796 7.6773ZM43.1311 15.7182C43.5294 15.7197 43.9267 15.6796 44.3164 15.5987C44.6708 15.5279 45.0088 15.3927 45.3132 15.2002C45.6043 15.0101 45.8409 14.7493 46.0002 14.443C46.18 14.064 46.2647 13.6479 46.2471 13.2298C46.2471 12.2557 45.9687 11.5605 45.412 11.1443C44.8552 10.7281 44.1189 10.52 43.2029 10.52H38.6142V15.7182H43.1311Z" fill="#2272FF"/>
<path d="M8.30646 22.6058C9.48647 22.5957 10.6588 22.7937 11.7682 23.1903C12.8133 23.5651 13.7611 24.164 14.543 24.9437C15.3587 25.7773 15.9834 26.7739 16.3749 27.8661C16.8406 29.1893 17.0641 30.5836 17.035 31.9839C17.0474 33.2784 16.8659 34.5675 16.4962 35.8096C16.1695 36.9187 15.6147 37.9497 14.8663 38.8382C14.1236 39.6999 13.1936 40.3854 12.1454 40.844C10.9336 41.3558 9.62439 41.605 8.30646 41.5746H0V22.6058H8.30646ZM8.00114 38.0788C8.60618 38.0797 9.20713 37.981 9.77917 37.7866C10.3613 37.5871 10.8875 37.2549 11.3147 36.8169C11.7982 36.3093 12.1657 35.7053 12.3923 35.0458C12.6824 34.1901 12.8191 33.2911 12.7964 32.3891C12.8059 31.5177 12.7109 30.6483 12.5136 29.7988C12.3501 29.0814 12.0332 28.4066 11.5841 27.8196C11.1363 27.258 10.5462 26.8227 9.87346 26.5577C9.03589 26.2414 8.14336 26.091 7.24682 26.1149H4.22956V38.07L8.00114 38.0788Z" fill="white"/>
<path d="M24.4068 22.6064V41.5752H20.1772V22.6064H24.4068Z" fill="white"/>
<path d="M31.5738 36.8994C31.7928 37.3256 32.1114 37.6944 32.5032 37.9754C32.914 38.2611 33.3754 38.4684 33.8636 38.5864C34.3917 38.7202 34.9348 38.7871 35.48 38.7857C35.8859 38.7835 36.291 38.7524 36.6923 38.6927C37.1124 38.634 37.5211 38.513 37.9046 38.334C38.2715 38.1649 38.5941 37.915 38.8475 37.6035C39.1086 37.2645 39.2419 36.8465 39.2247 36.4212C39.234 36.1904 39.1945 35.9602 39.1087 35.7452C39.0229 35.5302 38.8927 35.3352 38.7263 35.1726C38.3478 34.8252 37.9039 34.5544 37.4197 34.3756C36.8238 34.1455 36.2115 33.9591 35.5878 33.8177C34.9053 33.6583 34.2139 33.4812 33.5134 33.2863C32.8004 33.1109 32.0987 32.8936 31.4121 32.6355C30.7557 32.3928 30.1386 32.0572 29.5802 31.6392C29.0385 31.2285 28.5928 30.7074 28.2736 30.1116C27.9247 29.4255 27.7535 28.6649 27.7752 27.8977C27.7528 27.0114 27.9714 26.1354 28.4083 25.3606C28.8226 24.6517 29.3878 24.0399 30.0651 23.5673C30.7672 23.0801 31.5517 22.7202 32.3819 22.5046C33.2247 22.277 34.0944 22.1608 34.9682 22.1593C35.9435 22.1558 36.9157 22.2672 37.8642 22.4913C38.7486 22.6938 39.5864 23.0588 40.3337 23.5673C41.0479 24.0585 41.6341 24.7094 42.0444 25.4668C42.4893 26.3344 42.7069 27.2979 42.6775 28.2696H38.5781C38.5627 27.7797 38.4385 27.2991 38.2144 26.8616C38.023 26.5012 37.7399 26.196 37.3928 25.976C37.0326 25.7595 36.6355 25.6094 36.2209 25.5333C35.7462 25.4414 35.2633 25.3969 34.7796 25.4004C34.4355 25.4007 34.0925 25.4363 33.7559 25.5067C33.4255 25.5732 33.1104 25.6993 32.8265 25.8786C32.5533 26.0507 32.3193 26.2769 32.1395 26.5428C31.9497 26.8453 31.8558 27.1969 31.8701 27.5523C31.8586 27.8681 31.9363 28.1809 32.0946 28.4556C32.3109 28.7428 32.605 28.9638 32.9432 29.0932C33.509 29.3368 34.0948 29.5324 34.6943 29.6777C35.4426 29.8725 36.4154 30.1205 37.6128 30.4216C37.972 30.4924 38.4704 30.6208 39.1079 30.8068C39.7817 31.0083 40.4217 31.3067 41.0072 31.6923C41.6578 32.1216 42.2125 32.6776 42.6371 33.3262C43.095 34.0081 43.324 34.8804 43.324 35.943C43.3315 36.7758 43.1569 37.6004 42.8122 38.3606C42.4653 39.1117 41.9439 39.7715 41.2901 40.2867C40.5455 40.8631 39.6947 41.2917 38.7847 41.5486C37.6592 41.864 36.4926 42.0132 35.3229 41.9914C34.2814 41.9992 33.2432 41.875 32.2338 41.6217C31.2843 41.3866 30.3885 40.9765 29.5937 40.4129C28.8298 39.8628 28.207 39.144 27.7752 38.3141C27.3063 37.3738 27.084 36.3325 27.1287 35.2855H31.2235C31.2073 35.8434 31.3274 36.397 31.5738 36.8994Z" fill="white"/>
<path d="M58.3699 27.6739C58.1175 27.2744 57.7988 26.9196 57.427 26.6245C57.0439 26.3201 56.6112 26.0821 56.1473 25.9205C55.6675 25.7516 55.1616 25.6662 54.6522 25.6681C53.8101 25.6427 52.9755 25.8302 52.2276 26.2127C51.5767 26.5634 51.022 27.0649 50.6112 27.6739C50.1885 28.3109 49.8844 29.0171 49.7132 29.7594C49.5231 30.5515 49.4282 31.3629 49.4303 32.177C49.4287 32.9603 49.5237 33.7409 49.7132 34.5016C49.888 35.2261 50.1921 35.9143 50.6112 36.5339C51.0251 37.1369 51.5793 37.6333 52.2276 37.9818C52.9755 38.3643 53.8101 38.5518 54.6522 38.5264C55.9453 38.5264 56.9555 38.1368 57.6829 37.3575C58.4103 36.5782 58.8548 35.5509 59.0164 34.2757H63.1113C63.0234 35.3868 62.7408 36.4744 62.2762 37.4903C61.8512 38.4092 61.247 39.2367 60.4981 39.9256C59.7508 40.6088 58.8711 41.136 57.9119 41.4754C56.8653 41.8393 55.7619 42.0192 54.6522 42.0067C53.2888 42.0279 51.9358 41.7701 50.6786 41.2495C49.545 40.7748 48.5294 40.0633 47.7017 39.164C46.8793 38.2547 46.2475 37.1937 45.8429 36.0424C45.4039 34.8001 45.1852 33.4925 45.1963 32.177C45.1838 30.8353 45.4025 29.5013 45.8429 28.2318C46.2471 27.0643 46.8785 25.9859 47.7017 25.057C48.5249 24.143 49.541 23.4176 50.6786 22.9317C52.896 22.0283 55.3634 21.9156 57.656 22.6129C58.5723 22.9001 59.4297 23.3454 60.1883 23.9279C60.9416 24.5127 61.5689 25.2397 62.0337 26.0666C62.5355 26.9699 62.8471 27.9639 62.9497 28.9889H58.8638C58.7935 28.5215 58.6253 28.0737 58.3699 27.6739Z" fill="white"/>
<path d="M66.0289 28.2247C66.4331 27.0573 67.0645 25.9789 67.8877 25.05C68.711 24.1359 69.727 23.4105 70.8646 22.9247C73.416 21.8975 76.274 21.8975 78.8253 22.9247C79.9576 23.4131 80.9687 24.1382 81.7887 25.05C82.612 25.9789 83.2434 27.0573 83.6476 28.2247C84.088 29.4942 84.3066 30.8283 84.2941 32.1699C84.3053 33.4855 84.0865 34.7931 83.6476 36.0354C83.2429 37.1867 82.6112 38.2476 81.7887 39.157C80.9643 40.054 79.9536 40.7653 78.8253 41.2425C76.2705 42.252 73.4195 42.252 70.8646 41.2425C69.7311 40.7678 68.7154 40.0563 67.8877 39.157C67.0653 38.2476 66.4335 37.1867 66.0289 36.0354C65.5899 34.7931 65.3712 33.4855 65.3823 32.1699C65.3699 30.8283 65.5885 29.4942 66.0289 28.2247ZM69.8948 34.4945C70.0696 35.2191 70.3736 35.9073 70.7928 36.5269C71.2066 37.1298 71.7609 37.6263 72.4092 37.9748C73.1657 38.3332 73.9944 38.5193 74.8337 38.5193C75.6731 38.5193 76.5018 38.3332 77.2583 37.9748C77.9066 37.6263 78.4609 37.1298 78.8747 36.5269C79.2938 35.9073 79.5979 35.2191 79.7727 34.4945C79.9623 33.7338 80.0573 32.9532 80.0556 32.1699C80.0578 31.3559 79.9628 30.5445 79.7727 29.7523C79.6015 29.0101 79.2974 28.3038 78.8747 27.6668C78.4639 27.0578 77.9092 26.5564 77.2583 26.2057C76.5018 25.8472 75.6731 25.6611 74.8337 25.6611C73.9944 25.6611 73.1657 25.8472 72.4092 26.2057C71.7583 26.5564 71.2036 27.0578 70.7928 27.6668C70.3701 28.3038 70.066 29.0101 69.8948 29.7523C69.7047 30.5445 69.6097 31.3559 69.6119 32.1699C69.6102 32.9532 69.7052 33.7338 69.8948 34.4945Z" fill="white"/>
<path d="M101.536 40.1273C100.082 41.3759 98.07 42.0003 95.5017 42.0003C92.8975 42.0003 90.8815 41.3804 89.4537 40.1406C88.0259 38.9008 87.312 36.988 87.312 34.4021V22.6064H91.5416V34.4021C91.541 34.9098 91.5861 35.4166 91.6763 35.9164C91.7546 36.407 91.9574 36.8701 92.2659 37.2626C92.5744 37.6551 92.9786 37.9643 93.4408 38.1613C94.0932 38.4275 94.7964 38.5506 95.5017 38.5222C97.0104 38.5222 98.052 38.1901 98.6268 37.526C99.2015 36.8618 99.4888 35.8212 99.4888 34.4043V22.6064H103.718V34.4021C103.718 36.9703 102.991 38.8786 101.536 40.1273Z" fill="white"/>
<path d="M126.24 26.1243V22.6064H142V26.1243H136.235V41.5863H132.005V26.1243H126.24Z" fill="white"/>
<path d="M122.127 22.8343L121.532 22.5443C121.08 22.3421 120.569 22.3071 120.092 22.4457C119.616 22.5843 119.206 22.8873 118.937 23.2992L108.386 38.4003C107.674 39.4209 107.937 40.7869 108.951 41.3492L109.234 41.5064C109.683 41.7375 110.202 41.7975 110.692 41.675C111.182 41.5525 111.61 41.256 111.892 40.8422L122.745 25.8718C123.51 24.8069 123.212 23.3679 122.127 22.8343Z" fill="#2272FF"/>
<path d="M110.148 22.6064H109.735C108.537 22.6064 107.566 23.5639 107.566 24.7451V25.852C107.566 27.0332 108.537 27.9907 109.735 27.9907H110.148C111.345 27.9907 112.316 27.0332 112.316 25.852V24.7451C112.316 23.5639 111.345 22.6064 110.148 22.6064Z" fill="#2272FF"/>
<path d="M121.627 36.1846H121.18C119.975 36.1846 118.998 37.148 118.998 38.3365V39.4235C118.998 40.612 119.975 41.5754 121.18 41.5754H121.627C122.832 41.5754 123.809 40.612 123.809 39.4235V38.3365C123.809 37.148 122.832 36.1846 121.627 36.1846Z" fill="#2272FF"/>
</g>
<defs>
<clipPath id="clip0_2535_6402">
<rect width="142" height="42" fill="white"/>
</clipPath>
</defs>
</svg>
