<svg width="116" height="36" viewBox="0 0 116 36" fill="none" xmlns="http://www.w3.org/2000/svg">
<g clip-path="url(#clip0_2483_17970)">
<path d="M7.39442 -0.000586121C8.08171 -0.00683147 8.76772 0.0618625 9.44109 0.204358C10.0065 0.319257 10.5448 0.547459 11.0256 0.876121C11.467 1.1887 11.8201 1.61699 12.0489 2.11717C12.3091 2.71799 12.4345 3.37192 12.4157 4.02999C12.439 4.75181 12.2497 5.46391 11.8729 6.07184C11.4652 6.6626 10.9116 7.12923 10.27 7.42296C11.2383 7.7114 11.9609 8.21743 12.4377 8.94106C12.9292 9.71361 13.1789 10.6239 13.153 11.5484C13.1711 12.2867 13.0123 13.0182 12.6908 13.6776C12.3951 14.2625 11.9689 14.766 11.4474 15.1463C10.9067 15.5353 10.303 15.8207 9.66483 15.9889C8.99324 16.1716 8.30158 16.2634 7.60716 16.2621H0V-0.000586121H7.39442ZM6.95428 6.58041C7.49488 6.60384 8.02808 6.44392 8.47278 6.12497C8.86891 5.82135 9.06697 5.32797 9.06697 4.64482C9.07902 4.32122 9.01084 3.99981 8.86891 3.71119C8.74443 3.47656 8.56221 3.28016 8.34073 3.14189C8.10653 2.99992 7.84922 2.90345 7.58148 2.85725C7.28726 2.80339 6.98899 2.77671 6.69019 2.77755H3.45513V6.57282L6.95428 6.58041ZM7.15234 13.4726C7.47771 13.4739 7.80229 13.4396 8.12066 13.3701C8.41019 13.3095 8.6863 13.1936 8.93493 13.0286C9.17272 12.8657 9.36598 12.6422 9.49611 12.3796C9.64669 12.0531 9.71844 11.6936 9.70518 11.3321C9.70518 10.4971 9.47777 9.90127 9.02296 9.54451C8.56814 9.18775 7.96661 9.00938 7.21837 9.00938H3.45513V13.4726H7.15234Z" fill="#005DFF"/>
<path d="M15.2731 3.90565C15.4886 3.15751 15.8451 2.46095 16.3222 1.85621C16.8016 1.26399 17.4083 0.796088 18.0937 0.48991C18.8717 0.149288 19.7103 -0.017547 20.5549 0.000321085C21.241 -0.00340201 21.923 0.11206 22.5722 0.341895C23.1869 0.559061 23.7568 0.893789 24.2521 1.32866C24.7415 1.76078 25.1355 2.29661 25.4075 2.8999C25.6996 3.55374 25.8462 4.26705 25.8366 4.9873C25.8565 5.69704 25.7315 6.40314 25.4698 7.05952C25.2268 7.62653 24.8918 8.14638 24.4795 8.5966C24.0578 9.05397 23.5892 9.46247 23.082 9.81488C22.5612 10.1792 22.0367 10.5398 21.5085 10.8965C20.9803 11.2533 20.4668 11.6366 19.968 12.0465C19.4662 12.4596 19.0218 12.9423 18.6476 13.4811H25.932V16.2592H14.6129C14.5967 15.4395 14.7272 14.6236 14.9981 13.853C15.2456 13.1861 15.5989 12.5666 16.0434 12.0199C16.503 11.4623 17.0236 10.9617 17.5949 10.5284C18.1891 10.073 18.8163 9.60994 19.4765 9.13932C19.814 8.89643 20.1734 8.64973 20.5549 8.39925C20.9272 8.15599 21.2772 7.87776 21.6002 7.56808C21.912 7.26913 22.179 6.92376 22.3925 6.54336C22.6092 6.14805 22.7194 5.69979 22.7116 5.24538C22.7116 4.47115 22.4952 3.8677 22.0624 3.43504C21.8411 3.21794 21.5801 3.04872 21.2948 2.93729C21.0095 2.82585 20.7056 2.77443 20.4008 2.78605C19.9923 2.77244 19.5893 2.88759 19.2454 3.11624C18.929 3.33758 18.6686 3.63435 18.4862 3.98156C18.2908 4.3515 18.1534 4.75117 18.0791 5.16568C17.9992 5.58957 17.9587 6.0204 17.958 6.45227H14.965C14.9284 5.5915 15.0325 4.7305 15.2731 3.90565V3.90565Z" fill="#005DFF"/>
<path d="M35.476 -0.000586121C36.1633 -0.00683147 36.8493 0.0618625 37.5226 0.204358C38.0881 0.319257 38.6264 0.547459 39.1072 0.87612C39.5485 1.1887 39.9017 1.61699 40.1305 2.11717C40.3906 2.71799 40.516 3.37192 40.4973 4.02999C40.5206 4.75181 40.3313 5.46391 39.9544 6.07184C39.5478 6.65876 38.9969 7.12259 38.3589 7.41536C39.3272 7.7038 40.0498 8.20984 40.5266 8.93347C41.018 9.70601 41.2678 10.6163 41.2419 11.5408C41.26 12.2791 41.1012 13.0106 40.7797 13.67C40.484 14.2549 40.0578 14.7584 39.5363 15.1387C38.9956 15.5277 38.3919 15.8131 37.7537 15.9813C37.0821 16.164 36.3905 16.2558 35.696 16.2545H28.0815V-0.000586121H35.476ZM35.0285 6.58041C35.5691 6.60383 36.1023 6.44391 36.547 6.12497C36.9431 5.82135 37.1412 5.32797 37.1412 4.64482C37.1532 4.32122 37.085 3.99981 36.9431 3.71118C36.8186 3.47656 36.6364 3.28016 36.4149 3.14189C36.1807 2.99992 35.9234 2.90345 35.6557 2.85725C35.3615 2.80339 35.0632 2.77671 34.7644 2.77755H31.544V6.57281L35.0285 6.58041ZM35.2339 13.4726C35.5593 13.4739 35.8838 13.4396 36.2022 13.3701C36.4917 13.3095 36.7678 13.1936 37.0165 13.0286C37.2543 12.8657 37.4475 12.6422 37.5777 12.3796C37.7246 12.0547 37.7937 11.698 37.7794 11.3397C37.7794 10.5047 37.552 9.90885 37.0972 9.5521C36.6424 9.19534 36.0408 9.01697 35.2926 9.01697H31.544V13.4726H35.2339Z" fill="#005DFF"/>
<path d="M6.78556 19.3763C7.74951 19.3676 8.70721 19.5373 9.61348 19.8773C10.4672 20.1985 11.2414 20.7118 11.8802 21.3802C12.5465 22.0947 13.0569 22.9489 13.3767 23.8851C13.7571 25.0193 13.9397 26.2144 13.9159 27.4147C13.9261 28.5242 13.7777 29.6291 13.4757 30.6938C13.2089 31.6445 12.7556 32.5282 12.1443 33.2897C11.5376 34.0283 10.7779 34.616 9.92158 35.009C8.93164 35.4477 7.86218 35.6613 6.78556 35.6352H0V19.3763H6.78556ZM6.53614 32.6388C7.0304 32.6396 7.52132 32.555 7.98862 32.3884C8.46417 32.2174 8.89398 31.9326 9.24303 31.5572C9.63797 31.1221 9.93815 30.6044 10.1233 30.0391C10.3602 29.3056 10.4719 28.5351 10.4534 27.7619C10.4611 27.015 10.3836 26.2698 10.2223 25.5417C10.0888 24.9267 9.82996 24.3484 9.4631 23.8452C9.09724 23.3639 8.61523 22.9908 8.06564 22.7636C7.38143 22.4925 6.65232 22.3635 5.91994 22.384H3.45513V32.6313L6.53614 32.6388Z" fill="black"/>
<path d="M19.9379 19.377V35.6359H16.4828V19.377H19.9379Z" fill="black"/>
<path d="M25.7928 31.6277C25.9717 31.9929 26.2319 32.309 26.552 32.5499C26.8876 32.7948 27.2646 32.9725 27.6634 33.0737C28.0947 33.1883 28.5385 33.2457 28.9838 33.2444C29.3153 33.2426 29.6463 33.216 29.9741 33.1647C30.3173 33.1144 30.6512 33.0108 30.9645 32.8573C31.2642 32.7124 31.5277 32.4981 31.7347 32.2311C31.948 31.9406 32.0569 31.5823 32.0428 31.2178C32.0504 31.0199 32.0182 30.8226 31.9481 30.6383C31.878 30.4541 31.7716 30.2869 31.6357 30.1475C31.3265 29.8498 30.9639 29.6177 30.5683 29.4644C30.0815 29.2672 29.5813 29.1074 29.0718 28.9862C28.5143 28.8495 27.9495 28.6977 27.3773 28.5307C26.7949 28.3804 26.2216 28.1941 25.6607 27.9728C25.1245 27.7649 24.6204 27.4772 24.1642 27.1189C23.7217 26.7668 23.3577 26.3202 23.0969 25.8095C22.8119 25.2215 22.672 24.5695 22.6898 23.9119C22.6714 23.1522 22.85 22.4013 23.2069 21.7372C23.5453 21.1296 24.0071 20.6052 24.5604 20.2001C25.1339 19.7825 25.7748 19.474 26.453 19.2893C27.1414 19.0941 27.8519 18.9946 28.5657 18.9932C29.3624 18.9902 30.1566 19.0858 30.9315 19.2779C31.6539 19.4514 32.3383 19.7643 32.9488 20.2001C33.5322 20.6212 34.0111 21.1791 34.3462 21.8283C34.7097 22.5719 34.8875 23.3978 34.8634 24.2307H31.5146C31.502 23.8108 31.4006 23.3988 31.2175 23.0238C31.0612 22.7149 30.8299 22.4533 30.5463 22.2648C30.2521 22.0791 29.9277 21.9505 29.589 21.8852C29.2012 21.8065 28.8068 21.7684 28.4116 21.7714C28.1306 21.7716 27.8503 21.8021 27.5754 21.8625C27.3055 21.9195 27.0481 22.0275 26.8161 22.1813C26.5929 22.3287 26.4018 22.5226 26.2549 22.7505C26.0998 23.0098 26.0232 23.3112 26.0348 23.6159C26.0254 23.8865 26.0889 24.1546 26.2182 24.3901C26.3949 24.6362 26.6352 24.8257 26.9115 24.9366C27.3736 25.1454 27.8522 25.313 28.3419 25.4376C28.9532 25.6046 29.748 25.8171 30.7261 26.0752C31.0195 26.1359 31.4266 26.246 31.9475 26.4054C32.4979 26.5782 33.0206 26.8339 33.499 27.1644C34.0304 27.5324 34.4836 28.009 34.8304 28.5649C35.2045 29.1494 35.3916 29.897 35.3916 30.8079C35.3977 31.5217 35.2551 32.2285 34.9734 32.8801C34.6901 33.5239 34.2641 34.0895 33.73 34.531C33.1218 35.0251 32.4268 35.3924 31.6834 35.6127C30.764 35.883 29.811 36.0109 28.8554 35.9922C28.0046 35.9989 27.1565 35.8924 26.3319 35.6753C25.5563 35.4738 24.8245 35.1223 24.1752 34.6392C23.5512 34.1677 23.0425 33.5516 22.6898 32.8403C22.3067 32.0343 22.1251 31.1417 22.1616 30.2443H25.5067C25.4934 30.7225 25.5915 31.197 25.7928 31.6277V31.6277Z" fill="black"/>
<path d="M47.6823 23.7203C47.4762 23.3779 47.2158 23.0738 46.9121 22.8208C46.5991 22.56 46.2457 22.3559 45.8667 22.2174C45.4748 22.0726 45.0615 21.9994 44.6453 22.0011C43.9575 21.9793 43.2756 22.14 42.6647 22.4679C42.133 22.7685 41.6798 23.1983 41.3443 23.7203C40.999 24.2663 40.7506 24.8716 40.6107 25.5079C40.4554 26.1869 40.3778 26.8824 40.3796 27.5801C40.3783 28.2515 40.4559 28.9206 40.6107 29.5726C40.7535 30.1937 41.0019 30.7836 41.3443 31.3147C41.6824 31.8315 42.1351 32.257 42.6647 32.5557C43.2756 32.8836 43.9575 33.0443 44.6453 33.0225C45.7017 33.0225 46.527 32.6885 47.1212 32.0206C47.7153 31.3526 48.0785 30.4721 48.2105 29.3791H51.5556C51.4838 30.3314 51.2529 31.2637 50.8734 32.1344C50.5262 32.9221 50.0327 33.6313 49.4209 34.2218C48.8104 34.8074 48.0918 35.2593 47.3082 35.5502C46.4532 35.8622 45.5519 36.0163 44.6453 36.0056C43.5316 36.0238 42.4263 35.8028 41.3993 35.3566C40.4733 34.9497 39.6436 34.3398 38.9675 33.569C38.2956 32.7896 37.7795 31.8802 37.449 30.8934C37.0904 29.8285 36.9117 28.7077 36.9208 27.5801C36.9106 26.4301 37.0892 25.2867 37.449 24.1985C37.7792 23.1978 38.295 22.2735 38.9675 21.4773C39.64 20.6938 40.47 20.0721 41.3993 19.6556C43.2107 18.8813 45.2263 18.7846 47.0991 19.3823C47.8477 19.6285 48.5481 20.0102 49.1678 20.5095C49.7832 21.0107 50.2957 21.6339 50.6753 22.3426C51.0853 23.1169 51.3398 23.9689 51.4236 24.8475H48.0858C48.0284 24.4469 47.891 24.063 47.6823 23.7203V23.7203Z" fill="black"/>
<path d="M53.9391 24.1925C54.2693 23.1918 54.7851 22.2675 55.4576 21.4713C56.1301 20.6878 56.9601 20.066 57.8894 19.6496C59.9736 18.7692 62.3083 18.7692 64.3925 19.6496C65.3175 20.0682 66.1434 20.6898 66.8133 21.4713C67.4858 22.2675 68.0016 23.1918 68.3318 24.1925C68.6916 25.2806 68.8702 26.4241 68.86 27.5741C68.8691 28.7017 68.6904 29.8225 68.3318 30.8874C68.0013 31.8742 67.4852 32.7836 66.8133 33.563C66.1399 34.3319 65.3142 34.9416 64.3925 35.3506C62.3055 36.2159 59.9765 36.2159 57.8894 35.3506C56.9634 34.9437 56.1337 34.3338 55.4576 33.563C54.7858 32.7836 54.2697 31.8742 53.9391 30.8874C53.5805 29.8225 53.4018 28.7017 53.4109 27.5741C53.4008 26.4241 53.5794 25.2806 53.9391 24.1925V24.1925ZM57.0971 29.5666C57.2399 30.1877 57.4883 30.7775 57.8307 31.3086C58.1688 31.8254 58.6216 32.251 59.1512 32.5497C59.7692 32.8569 60.4461 33.0164 61.1318 33.0164C61.8175 33.0164 62.4944 32.8569 63.1125 32.5497C63.642 32.251 64.0948 31.8254 64.4329 31.3086C64.7753 30.7775 65.0237 30.1877 65.1665 29.5666C65.3213 28.9146 65.3989 28.2455 65.3975 27.5741C65.3993 26.8764 65.3218 26.1808 65.1665 25.5019C65.0266 24.8656 64.7782 24.2603 64.4329 23.7143C64.0973 23.1923 63.6442 22.7625 63.1125 22.4619C62.4944 22.1546 61.8175 21.9951 61.1318 21.9951C60.4461 21.9951 59.7692 22.1546 59.1512 22.4619C58.6194 22.7625 58.1663 23.1923 57.8307 23.7143C57.4854 24.2603 57.237 24.8656 57.0971 25.5019C56.9419 26.1808 56.8643 26.8764 56.8661 27.5741C56.8647 28.2455 56.9423 28.9146 57.0971 29.5666V29.5666Z" fill="black"/>
<path d="M82.9451 34.3948C81.7567 35.4651 80.1135 36.0002 78.0155 36.0002C75.8881 36.0002 74.2413 35.4689 73.0749 34.4062C71.9085 33.3435 71.3253 31.704 71.3253 29.4875V19.377H74.7804V29.4875C74.78 29.9227 74.8168 30.3571 74.8905 30.7855C74.9544 31.206 75.1201 31.6029 75.3722 31.9394C75.6242 32.2758 75.9544 32.5408 76.332 32.7097C76.8648 32.9378 77.4393 33.0434 78.0155 33.019C79.2479 33.019 80.0988 32.7344 80.5683 32.1651C81.0378 31.5958 81.2726 30.7039 81.2726 29.4894V19.377H84.7277V29.4875C84.7277 31.6888 84.1335 33.3246 82.9451 34.3948Z" fill="black"/>
<path d="M103.125 22.3923V19.377H116V22.3923H111.29V35.6454H107.835V22.3923H103.125Z" fill="black"/>
<path d="M99.7659 19.5726L99.2799 19.324C98.9102 19.1507 98.4927 19.1207 98.1035 19.2395C97.7143 19.3583 97.3794 19.6179 97.1598 19.9711L88.5403 32.9148C87.959 33.7896 88.1735 34.9605 89.0025 35.4425L89.2336 35.5772C89.5998 35.7753 90.0237 35.8267 90.4243 35.7217C90.8249 35.6167 91.174 35.3625 91.4049 35.0079L100.27 22.1761C100.896 21.2634 100.652 20.0299 99.7659 19.5726Z" fill="#005DFF"/>
<path d="M89.9795 19.377H89.6421C88.6636 19.377 87.8705 20.1977 87.8705 21.2101V22.1589C87.8705 23.1713 88.6636 23.992 89.6421 23.992H89.9795C90.9579 23.992 91.7511 23.1713 91.7511 22.1589V21.2101C91.7511 20.1977 90.9579 19.377 89.9795 19.377Z" fill="#005DFF"/>
<path d="M99.3574 31.0156H98.9924C98.0079 31.0156 97.2098 31.8414 97.2098 32.8601V33.7919C97.2098 34.8106 98.0079 35.6364 98.9924 35.6364H99.3574C100.342 35.6364 101.14 34.8106 101.14 33.7919V32.8601C101.14 31.8414 100.342 31.0156 99.3574 31.0156Z" fill="#005DFF"/>
</g>
<defs>
<clipPath id="clip0_2483_17970">
<rect width="116" height="36" fill="white"/>
</clipPath>
</defs>
</svg>
