<svg width="6" height="5" viewBox="0 0 6 5" fill="none" xmlns="http://www.w3.org/2000/svg">
<path opacity="0.1" d="M0.936 2.359C0.936 2.03833 0.996667 1.73933 1.118 1.462C1.23933 1.176 1.404 0.929 1.612 0.721C1.82 0.513 2.06267 0.348333 2.34 0.227C2.626 0.105666 2.92933 0.0449997 3.25 0.0449997C3.57067 0.0449997 3.86967 0.105666 4.147 0.227C4.433 0.348333 4.68 0.513 4.888 0.721C5.10467 0.929 5.27367 1.176 5.395 1.462C5.51633 1.73933 5.577 2.03833 5.577 2.359C5.577 2.67967 5.51633 2.983 5.395 3.269C5.27367 3.54633 5.10467 3.79333 4.888 4.01C4.68 4.218 4.433 4.38267 4.147 4.504C3.86967 4.62533 3.57067 4.686 3.25 4.686C2.92933 4.686 2.626 4.62533 2.34 4.504C2.06267 4.38267 1.82 4.218 1.612 4.01C1.404 3.79333 1.23933 3.54633 1.118 3.269C0.996667 2.983 0.936 2.67967 0.936 2.359Z" fill="white"/>
</svg>
