<svg width="540" height="479" viewBox="0 0 540 479" fill="none" xmlns="http://www.w3.org/2000/svg">
<path opacity="0.15" d="M270 479C419.117 479 540 473.066 540 465.745C540 458.425 419.117 452.49 270 452.49C120.883 452.49 0 458.425 0 465.745C0 473.066 120.883 479 270 479Z" fill="black"/>
<path d="M441.751 213.584H126.352V407.25H441.751V213.584Z" fill="#DFE2E2"/>
<path d="M438.06 189.375H130.029C114.623 189.375 102.09 201.854 102.09 217.192V437.518C102.09 440.861 104.805 443.571 108.155 443.571H459.947C463.297 443.571 466.013 440.861 466.013 437.518V217.192C466.013 201.854 453.473 189.375 438.06 189.375ZM126.352 401.205V219.636C126.352 216.294 129.067 213.584 132.417 213.584H435.685C439.035 213.584 441.751 216.294 441.751 219.636V401.205C441.751 404.547 439.035 407.257 435.685 407.257H132.417C129.067 407.257 126.352 404.547 126.352 401.205Z" fill="url(#paint0_linear_1326_34800)"/>
<path d="M472.079 431.459H96.0246C92.6746 431.459 89.959 434.169 89.959 437.511C89.959 450.875 100.848 461.741 114.242 461.741H453.855C467.248 461.741 478.137 450.869 478.137 437.511C478.144 434.169 475.429 431.459 472.079 431.459Z" fill="#3C415E"/>
<path d="M259.786 443.564H308.31C315.01 443.564 320.441 438.144 320.441 431.459H247.655C247.655 438.144 253.086 443.564 259.786 443.564Z" fill="#DFE2E2"/>
<path d="M383.116 407.317H184.98V133.29H339.224L383.116 173.334V407.317Z" fill="#FAF9F9"/>
<path d="M339.225 133.29V173.334H383.116L339.225 133.29Z" fill="#D5DAEB"/>
<path d="M325.428 173.335H242.667V232.142H325.428V173.335Z" fill="#3C415E"/>
<path d="M346.749 259.666H220.097C217.327 259.666 215.082 257.426 215.082 254.662C215.082 251.898 217.327 249.658 220.097 249.658H346.749C349.519 249.658 351.764 251.898 351.764 254.662C351.764 257.426 349.519 259.666 346.749 259.666Z" fill="#3C415E"/>
<path d="M346.749 283.446H220.097C217.327 283.446 215.082 281.206 215.082 278.442C215.082 275.678 217.327 273.438 220.097 273.438H346.749C349.519 273.438 351.764 275.678 351.764 278.442C351.764 281.2 349.519 283.446 346.749 283.446Z" fill="#3C415E"/>
<path d="M346.749 307.221H220.097C217.327 307.221 215.082 304.981 215.082 302.217C215.082 299.453 217.327 297.213 220.097 297.213H346.749C349.519 297.213 351.764 299.453 351.764 302.217C351.764 304.981 349.519 307.221 346.749 307.221Z" fill="#3C415E"/>
<path d="M346.749 330.994H220.097C217.327 330.994 215.082 328.754 215.082 325.99C215.082 323.226 217.327 320.986 220.097 320.986H346.749C349.519 320.986 351.764 323.226 351.764 325.99C351.764 328.754 349.519 330.994 346.749 330.994Z" fill="#3C415E"/>
<path d="M346.749 354.768H220.097C217.327 354.768 215.082 352.528 215.082 349.764C215.082 347 217.327 344.76 220.097 344.76H346.749C349.519 344.76 351.764 347 351.764 349.764C351.764 352.528 349.519 354.768 346.749 354.768Z" fill="#3C415E"/>
<path d="M346.749 378.541H220.097C217.327 378.541 215.082 376.301 215.082 373.537C215.082 370.773 217.327 368.533 220.097 368.533H346.749C349.519 368.533 351.764 370.773 351.764 373.537C351.764 376.301 349.519 378.541 346.749 378.541Z" fill="#3C415E"/>
<path d="M214.851 464.934C246.681 464.934 272.484 439.187 272.484 407.427C272.484 375.667 246.681 349.92 214.851 349.92C183.022 349.92 157.219 375.667 157.219 407.427C157.219 439.187 183.022 464.934 214.851 464.934Z" fill="#FB7668"/>
<path d="M214.852 456.45C241.986 456.45 263.983 434.501 263.983 407.425C263.983 380.35 241.986 358.401 214.852 358.401C187.718 358.401 165.721 380.35 165.721 407.425C165.721 434.501 187.718 456.45 214.852 456.45Z" fill="#FAF9F9"/>
<path d="M214.851 444.713C194.246 444.713 177.482 427.986 177.482 407.426C177.482 386.866 194.246 370.139 214.851 370.139C235.456 370.139 252.22 386.866 252.22 407.426C252.22 427.986 235.456 444.713 214.851 444.713Z" fill="#FB7668"/>
<path d="M214.851 432.975C200.728 432.975 189.245 421.511 189.245 407.425C189.245 393.333 200.735 381.875 214.851 381.875C228.974 381.875 240.457 393.34 240.457 407.425C240.457 421.511 228.968 432.975 214.851 432.975Z" fill="#FAF9F9"/>
<path d="M214.851 421.24C207.217 421.24 201.008 415.045 201.008 407.427C201.008 399.808 207.217 393.613 214.851 393.613C222.486 393.613 228.695 399.808 228.695 407.427C228.695 415.045 222.486 421.24 214.851 421.24Z" fill="#FB7668"/>
<path d="M262.276 364.657L217.013 409.821C215.772 411.06 213.752 411.06 212.51 409.821C211.269 408.582 211.269 406.567 212.51 405.328L257.773 360.164L262.276 364.657Z" fill="#738598"/>
<path d="M262.277 364.659L217.015 409.823C215.773 411.062 213.753 411.062 212.512 409.823L260.026 362.412L262.277 364.659Z" fill="#3C415E"/>
<path d="M236.281 367.123L253.707 349.735L257.773 360.165L240.348 377.553L236.281 367.123Z" fill="#488B8F"/>
<path d="M240.205 363.207L242.818 360.6L246.884 371.029L244.271 373.637L240.205 363.207Z" fill="#ADD2C9"/>
<path d="M246.592 356.835L249.211 354.221L253.271 364.657L250.658 367.265L246.592 356.835Z" fill="#ADD2C9"/>
<path d="M262.277 364.657L244.852 382.045L255.304 386.102L272.73 368.715L262.277 364.657Z" fill="#488B8F"/>
<path d="M257.773 369.151L255.16 371.759L265.613 375.816L268.233 373.202L257.773 369.151Z" fill="#ADD2C9"/>
<path d="M251.388 375.523L248.774 378.131L259.227 382.188L261.84 379.581L251.388 375.523Z" fill="#ADD2C9"/>
<path d="M397.62 312.947L398.398 326.87C398.473 328.211 398.254 329.552 397.75 330.798L392.346 344.277L388.825 340.765L392.346 327.367L391.588 314.009L397.62 312.947Z" fill="#FFE1BD"/>
<path d="M376.32 348.865L392.442 335.937C392.442 335.937 396.222 345.032 393.227 354.563C391.753 359.254 393.322 362.583 392.524 364.809C391.78 366.886 386.315 396.398 386.616 398.57C386.916 400.741 389.324 406.869 390.15 413.261C391.05 420.294 390.464 441.753 390.934 450.467H390.948C390.948 450.467 391.33 456.955 392.067 458.391C392.797 459.828 393.841 461.428 393.984 463.347C394.066 464.457 393.418 465.621 392.122 466.248C390.825 466.874 389.986 466.166 389.522 466.214C386.841 466.472 386.315 468.487 381.703 469.134C380.284 469.332 378.128 468.807 376.9 467.8C376.429 467.412 376.456 466.792 376.736 466.377C377.016 465.962 380.434 464.879 381.983 463.94C383.463 463.041 384.951 460.502 385.367 459.63C385.476 459.406 385.469 458.766 385.394 457.949C385.224 456.58 385.026 455.158 384.814 453.694C384.63 452.591 384.48 451.774 384.48 451.774L384.528 451.767C381.635 432.821 375.999 407.74 375.249 399.121C374.416 389.508 375.262 371.991 376.32 348.865Z" fill="#FFE1BD"/>
<path d="M376.531 468.12C376.21 467.541 376.142 466.677 376.463 466.472C376.9 466.186 378.462 465.213 379.363 464.825C380.263 464.437 381.682 464.11 381.178 464.369C380.673 464.628 381.566 465.649 382.399 465.621C385.285 465.513 387.455 463.654 389.099 463.286C391.48 462.755 392.538 459.984 392.654 459.535C393.097 459.828 394.08 462.102 394.277 462.81C394.455 463.45 394.769 464.627 394.571 465.288C394.434 465.744 394.134 466.663 394.25 467.637C394.25 467.637 393.772 467.984 392.531 468.208C391.746 468.351 390.695 468.188 390.695 468.188L390.525 466.697C390.525 466.697 389.884 466.656 389.058 466.806C388.232 466.956 386.875 467.705 386.793 467.793C386.452 468.175 386.172 468.883 385.735 469.094C384.568 469.645 383.402 469.89 381.935 469.945C378.865 470.053 377.084 469.114 376.531 468.12Z" fill="#3C415E"/>
<path d="M353.134 466.642C353.476 466.274 357.146 465.716 358.873 465.015C360.517 464.348 362.523 462.176 362.918 461.25C363.314 460.324 363.273 455.606 363.246 453.625C363.041 439.982 360.851 406.63 360.571 398.651C360.073 384.77 362.025 370.473 367.599 348.258L387.672 333.206C387.672 333.206 393.144 343.609 391.179 353.48C390.039 359.206 385.256 360.043 384.424 362.269C383.592 364.489 371.181 400.339 371.181 400.339C371.181 400.339 373.446 408.141 373.494 416.658C373.535 423.929 370.007 445.83 369.311 454.184C369.223 455.817 368.902 459.718 369.373 460.971C369.946 462.503 371.433 464.307 371.345 466.234C371.29 467.35 370.471 468.405 369.052 468.827C367.64 469.25 366.855 468.426 366.371 468.405C363.567 468.262 362.768 470.182 357.917 470.128C356.423 470.114 354.26 469.263 353.128 468.085C352.677 467.622 352.786 467.016 353.134 466.642Z" fill="#FFE1BD"/>
<path d="M352.698 468.344C352.439 467.718 352.486 466.853 352.834 466.697C353.326 466.486 355.059 465.743 356.041 465.498C357.024 465.246 358.531 465.138 357.979 465.315C357.426 465.492 358.218 466.642 359.084 466.737C362.079 467.064 364.556 465.546 366.309 465.43C368.841 465.26 369.789 462.673 369.967 462.244C370.383 462.605 371.611 465.008 371.72 465.737C371.822 466.397 371.993 467.609 371.706 468.235C371.509 468.664 371.079 469.529 371.079 470.516C371.079 470.516 370.546 470.788 369.23 470.822C368.397 470.843 367.34 470.53 367.34 470.53L367.353 469.032C367.353 469.032 366.692 468.896 365.825 468.916C364.952 468.943 363.874 469.372 363.348 469.76C362.932 470.067 362.495 470.584 362.011 470.7C360.606 471.04 359.596 471.129 358.074 470.958C354.861 470.604 353.141 469.413 352.698 468.344Z" fill="#3C415E"/>
<path d="M321.095 290.928C320.099 291.214 316.838 290.091 315.998 288.75C315.725 288.321 315.562 287.817 315.616 287.307C315.125 286.728 314.279 284.692 315.753 285.114C314.238 284.1 313.856 282.568 313.447 280.846C313.31 280.267 313.979 280.097 314.675 281.241C315.644 282.827 317.158 283.739 319.069 284.168C319.191 283.855 318.768 283.753 318.455 283.079C318.107 282.337 318.332 281.819 318.666 281.697C318.918 281.601 319.492 282.452 319.683 282.616C320.426 283.242 321.163 283.868 321.907 284.502C322.719 285.189 323.149 285.686 323.517 286.694C323.578 286.864 323.967 288.566 323.237 288.328" fill="#FFE1BD"/>
<path d="M369.421 306.662C361.943 306.573 348.557 305.3 346.715 304.939C339.462 303.523 320.938 290.847 320.938 290.847C320.938 290.847 320.583 287.885 323.408 287.068C328.109 290.874 344.927 295.694 347.172 297.056C348.625 297.934 372.144 296.974 372.144 296.974" fill="#FFE1BD"/>
<path d="M394.324 297.499C394.324 297.499 397.504 306.043 398.541 312.803L390.852 314.008V303.143" fill="#F9B253"/>
<path d="M368.344 332.321C368.214 333.54 361.664 347.203 360.852 361.854C360.313 371.569 360.17 377.138 360.934 384.143C367.771 388.16 382.87 388.63 390.306 383.252C390.211 377.451 391.842 369.969 392.64 364.884C392.988 362.651 395.253 356.503 395.546 354.27C396.659 345.821 394.537 337.911 388.996 333.138L368.344 332.321Z" fill="#3C415E"/>
<path d="M368.549 319.156C368.829 321.77 368.549 325.793 368.188 330.266C368.119 331.029 367.758 332.438 367.826 333.194C367.86 333.643 368.058 334.024 368.406 334.337C369.204 335.113 370.746 335.597 372.438 335.896C377.944 336.89 386.657 336.23 389.113 336.706C391.419 337.169 393.794 336.393 393.794 334.984C393.794 334.011 392.9 333.459 392.818 331.539C392.634 327.332 392.77 317.767 393.548 313.498C394.285 309.454 394.776 306.152 394.995 302.823C395.479 295.382 389.673 289.017 382.202 288.847C378.92 288.772 376.136 288.731 375.652 288.813C374.703 288.962 369.382 294.014 367.874 299.971C366.96 301.509 366.311 302.769 365.929 303.844C365.186 305.846 365.267 307.323 365.943 309.141C367.226 312.661 368.14 315.193 368.549 319.156Z" fill="#DFE2E2"/>
<path d="M368.548 319.156C368.828 321.77 368.548 325.794 368.186 330.266C368.118 331.029 367.757 332.438 367.825 333.194C367.859 333.643 368.057 334.024 368.405 334.338V334.324C367.907 333.214 369.101 327.7 369.619 324.609C370.151 321.498 370.001 315.507 368.889 311.715C367.797 307.923 367.381 306.119 367.381 306.119C367.381 306.119 366.522 304.825 365.921 303.852C365.178 305.853 365.26 307.33 365.935 309.148C367.224 312.661 368.139 315.194 368.548 319.156Z" fill="#CCCCCC"/>
<path d="M372.758 292.448C372.758 292.448 367.812 292.128 365.383 293.557C362.142 295.47 355.367 296.594 355.367 296.594C355.367 296.594 354.848 304.314 355.68 307.275C355.68 307.275 357.932 306.921 364.598 307.643C371.489 308.392 380.693 312.946 380.693 312.946L372.758 292.448Z" fill="#DFE2E2"/>
<path d="M370.295 266.611C371.947 263.459 374.56 259.007 380.809 259.62C387.059 260.239 392.415 264.167 392.34 268.844C392.265 273.521 389.092 279.152 387.871 282.385C386.65 285.619 387.168 290.426 387.168 290.426L373.864 290.031C373.864 290.031 373.673 285.708 372.827 284.108C372.356 283.216 370.493 281.541 368.344 279.805C367.402 279.049 366.645 277.463 367.205 274.999C368.044 271.309 368.351 269.689 368.89 268.606C369.272 267.823 369.941 267.299 370.295 266.611Z" fill="#FFE1BD"/>
<path d="M373.857 264.773C371.763 263.561 370.555 258.183 376.941 256.869C383.327 255.548 398.515 255.991 396.311 275.101C394.107 294.211 408.954 304.627 410.4 305.852C413.259 308.269 410.844 313.321 405.119 310.461C399.395 307.609 400.937 314.417 398.515 315.07C396.093 315.731 394.203 315.438 390.86 312.946C387.51 310.454 387.141 314.301 384.651 314.628C379.588 315.288 378.926 309.794 380.25 306.724C381.574 303.646 387.073 278.389 380.694 273.562C378.954 272.241 377.084 272.35 375.87 272.643C375.385 272.759 374.969 272.282 375.16 271.826C375.924 269.933 376.811 266.475 373.857 264.773Z" fill="#002B55"/>
<path opacity="0.1" d="M384.133 89.1011L365.349 59.9902L346.9 89.1011H357.298V113.174H373.735V89.1011H384.133Z" fill="#738598"/>
<path opacity="0.1" d="M439.232 59.106L420.449 29.9951L402 59.106H412.398V113.174H428.834V59.106H439.232Z" fill="#738598"/>
<path opacity="0.1" d="M494.232 29.1108L475.449 0L457 29.1108H467.398V113.174H483.834V29.1108H494.232Z" fill="#738598"/>
<defs>
<linearGradient id="paint0_linear_1326_34800" x1="102.089" y1="316.471" x2="466.012" y2="316.471" gradientUnits="userSpaceOnUse">
<stop stop-color="#738598"/>
<stop offset="1" stop-color="#3C415E"/>
</linearGradient>
</defs>
</svg>
