<svg width="24" height="19" viewBox="0 0 24 19" fill="none" xmlns="http://www.w3.org/2000/svg">
<path d="M23.2992 2.70396C22.4683 3.07229 21.5746 3.32142 20.6373 3.43268C21.5943 2.85945 22.3287 1.95242 22.6754 0.869872C21.7799 1.40095 20.7876 1.78622 19.7325 1.99389C18.8871 1.09378 17.6827 0.53125 16.349 0.53125C13.7901 0.53125 11.7147 2.60617 11.7147 5.16449C11.7147 5.52765 11.7559 5.88112 11.8354 6.22044C7.98391 6.02729 4.56896 4.18283 2.28311 1.37884C1.88428 2.06299 1.65548 2.85945 1.65548 3.70842C1.65548 5.31549 2.47423 6.73424 3.71703 7.5649C2.95773 7.54106 2.24267 7.33271 1.61816 6.98475C1.61781 7.00445 1.61781 7.02415 1.61781 7.0435C1.61781 9.28842 3.2159 11.1609 5.33552 11.5862C4.94705 11.6926 4.53682 11.749 4.11483 11.749C3.81553 11.749 3.52557 11.7203 3.24286 11.6664C3.83247 13.5067 5.54357 14.8463 7.57195 14.884C5.98561 16.1268 3.98765 16.8673 1.81585 16.8673C1.44259 16.8673 1.07279 16.8456 0.710938 16.8024C2.76074 18.1175 5.19727 18.8842 7.81422 18.8842C16.3383 18.8842 20.9998 11.8243 20.9998 5.7011C20.9998 5.50035 20.9954 5.30029 20.9864 5.10195C21.8926 4.44889 22.6781 3.63309 23.2992 2.70396Z" fill="#2272FF"/>
</svg>
