<svg width="24" height="24" viewBox="0 0 24 24" fill="none" xmlns="http://www.w3.org/2000/svg">
<g clip-path="url(#clip0_2541_6442)">
<path d="M22.6795 1.32019C21.7997 0.440118 20.7396 0 19.5001 0H4.50003C3.26056 0 2.20049 0.440118 1.32025 1.32019C0.44018 2.20043 6.10352e-05 3.26044 6.10352e-05 4.49997V19.4999C6.10352e-05 20.7393 0.44018 21.7994 1.32025 22.6797C2.20049 23.5599 3.26056 24 4.50003 24H19.5C20.7395 24 21.7995 23.5599 22.6794 22.6797C23.5596 21.7994 23.9997 20.7394 23.9997 19.4999V4.49997C23.9997 3.26044 23.5596 2.20026 22.6795 1.32019ZM14.172 3.46852H15.219V7.71833C15.219 7.96843 15.2238 8.10388 15.2343 8.12473C15.2448 8.29143 15.3284 8.37467 15.4845 8.37467C15.6928 8.37467 15.9118 8.21334 16.1407 7.89045V3.46852H17.1877V9.24977H16.1407H16.1404V8.62451C15.7133 9.09314 15.3124 9.32775 14.9375 9.32775C14.6043 9.32775 14.3803 9.18721 14.2655 8.90591C14.2029 8.71853 14.172 8.43197 14.172 8.04647V3.46852V3.46852ZM10.2189 5.34359C10.2189 4.73951 10.3283 4.28626 10.547 3.98427C10.8282 3.58848 11.2344 3.39048 11.7656 3.39048C12.2762 3.39048 12.6825 3.58865 12.9843 3.98427C13.2032 4.28631 13.3126 4.73951 13.3126 5.34359V7.37491C13.3126 7.99996 13.2032 8.4531 12.9843 8.73429C12.6825 9.1303 12.2762 9.32819 11.7656 9.32819C11.2344 9.32819 10.8282 9.13013 10.547 8.73429C10.3283 8.43219 10.2189 7.97905 10.2189 7.37491V5.34359ZM7.40623 1.48415L8.23442 4.53122L9.03126 1.48415H10.2032L8.79686 6.10917H8.79708V9.24977H7.64085V6.10917C7.52614 5.53629 7.2866 4.71335 6.92206 3.64053C6.68251 2.92174 6.56266 2.56234 6.56266 2.56234L6.1875 1.48415H7.40623V1.48415ZM20.2815 20.3438C20.1774 20.7915 19.956 21.1716 19.6172 21.4844C19.2789 21.7968 18.8859 21.9792 18.4378 22.0315C17.0109 22.1875 14.8648 22.2657 12.0003 22.2657C9.13568 22.2657 6.98986 22.1875 5.56284 22.0315C5.11501 21.9792 4.72184 21.7968 4.38319 21.4844C4.04465 21.1716 3.82338 20.7915 3.71918 20.3438C3.51094 19.4686 3.4068 18.1144 3.4068 16.2812C3.4068 14.4788 3.51094 13.1251 3.71918 12.2186C3.82344 11.7603 4.0447 11.3774 4.38319 11.07C4.72184 10.7626 5.12015 10.5829 5.57855 10.5309C6.99501 10.3744 9.13568 10.2964 12.0003 10.2964C14.8754 10.2964 17.0214 10.3746 18.4378 10.5309C18.8859 10.583 19.2812 10.7625 19.625 11.07C19.9689 11.3772 20.1931 11.7601 20.2972 12.2186C20.4948 13.0832 20.5939 14.4372 20.5939 16.2812C20.5939 18.1143 20.4897 19.4684 20.2815 20.3438Z" fill="#2272FF"/>
<path d="M4.68713 13.3907H5.90592V20H7.06215V13.3907H8.31218V12.2969H4.68713V13.3907Z" fill="#2272FF"/>
<path d="M10.4063 18.641C10.1771 18.9637 9.95826 19.1252 9.75003 19.1252C9.60418 19.1252 9.52603 19.0471 9.51563 18.8909C9.50517 18.8701 9.49992 18.7347 9.49992 18.4845V14.2656H8.46869V18.7968C8.46869 19.1927 8.49999 19.474 8.56255 19.6404C8.65624 19.9322 8.8751 20.0779 9.21879 20.0779C9.60418 20.0779 10 19.8436 10.4063 19.3748V20H11.453V14.266H10.4063V18.641Z" fill="#2272FF"/>
<path d="M14.454 14.1873C14.079 14.1873 13.7247 14.3956 13.3917 14.8125V12.2969H12.3447V19.9999H13.3917V19.4374C13.7351 19.8644 14.0897 20.0779 14.454 20.0779C14.8812 20.0779 15.1571 19.8591 15.2818 19.4216C15.3548 19.2029 15.3911 18.8227 15.3911 18.2811V15.9999C15.3911 15.4478 15.3544 15.0623 15.2818 14.8436C15.157 14.4061 14.8811 14.1873 14.454 14.1873ZM14.3601 18.3594C14.3601 18.8697 14.2092 19.1246 13.9069 19.1249C13.7301 19.1249 13.558 19.0415 13.3913 18.8748V15.3747C13.558 15.2085 13.7301 15.125 13.9069 15.125C14.2092 15.125 14.3601 15.3851 14.3601 15.906V18.3594Z" fill="#2272FF"/>
<path d="M18.2495 18.3519C18.2495 18.4612 18.2468 18.547 18.242 18.6096C18.2369 18.6721 18.234 18.7087 18.234 18.7189C18.1716 18.9896 18.0153 19.125 17.7653 19.125C17.4111 19.125 17.2339 18.8594 17.2339 18.3282V17.3128H19.3121V16.125C19.3121 15.521 19.2029 15.0732 18.984 14.7814C18.703 14.3857 18.2966 14.1875 17.7653 14.1875C17.2339 14.1875 16.8175 14.3856 16.5151 14.7814C16.3069 15.0627 16.2028 15.5109 16.2028 16.125V18.1407C16.2028 18.7554 16.3121 19.2034 16.5309 19.4847C16.8331 19.8805 17.2549 20.0786 17.7968 20.0786C18.3488 20.0786 18.7654 19.8704 19.0469 19.4535C19.1718 19.2658 19.2503 19.0576 19.2814 18.8285C19.302 18.6826 19.3124 18.4586 19.3124 18.1566V18.0163V18.0159H18.2498V18.3519H18.2495V18.3519ZM17.2343 15.922C17.2343 15.3909 17.4063 15.1253 17.75 15.1253C18.0938 15.1253 18.2656 15.3909 18.2656 15.922V16.4535H17.2343V15.922Z" fill="#2272FF"/>
<path d="M11.7662 8.37495C12.0995 8.37495 12.2661 8.10947 12.2661 7.57823V5.14066C12.2661 4.59914 12.0995 4.32812 11.7662 4.32812C11.4329 4.32812 11.2662 4.59914 11.2662 5.14066V7.57823C11.2662 8.1093 11.4329 8.37495 11.7662 8.37495Z" fill="#2272FF"/>
</g>
<defs>
<clipPath id="clip0_2541_6442">
<rect width="24" height="24" fill="white"/>
</clipPath>
</defs>
</svg>
